<svg width="371" height="711" viewBox="0 0 371 711" fill="none" xmlns="http://www.w3.org/2000/svg">
<g opacity="0.27">
<path d="M5.06412 37.2118C5.06412 37.3507 5.11338 38.7855 5.49186 42.3603C6.05106 47.6421 7.91147 53.6006 9.30099 58.1997C10.1909 61.1454 10.6735 62.1983 10.9394 62.4841C12.445 64.1021 14.4223 58.3064 17.8914 56.5679C21.9185 54.5498 28.8949 55.0759 33.3745 55.6002C34.1059 55.7551 34.429 55.8752 34.8184 56.098C35.2077 56.3208 35.6537 56.6427 36.4914 57.385" stroke="black" stroke-linecap="round"/>
<path d="M36.4914 57.385C36.5191 56.9474 37.2602 55.1197 39.0063 53.0782C41.9397 50.7383 47.3811 49.1097 53.6344 48.1423C55.0598 48.0577 56.6689 48.0224 58.7209 48.2423" stroke="black" stroke-linecap="round"/>
<path d="M5 36.4984C6.68123 35.5672 12.1054 33.0283 16.8475 32.2229C21.7608 32.506 26.0136 33.4845 26.9233 33.8877C27.3431 34.0832 27.6778 34.2602 28.3941 34.6616" stroke="black" stroke-linecap="round"/>
<path d="M28.3941 34.6616C28.4122 34.2122 28.8324 32.8349 30.3449 31.2252C32.5506 28.8778 35.9812 28.0857 39.9958 27.0064C41.4625 26.5489 42.6116 26.2414 44.4191 26.1196C45.7221 26.0782 47.8081 26.0782 49.9574 26.0782" stroke="black" stroke-linecap="round"/>
<path d="M50.4663 26C50.4663 26.1133 51.7896 29.3339 53.9551 34.3981C56.1464 38.9065 58.3429 43.5175 59.5864 46.0838C60.049 47.0814 60.1699 47.4605 60.5115 48.6947" stroke="black" stroke-linecap="round"/>
<path d="M36.4582 57.0601C35.0352 53.571 31.0423 44.6615 29.4738 41.5332C28.7602 39.7786 28.2261 38.1771 28.0388 36.3986C28.0089 35.8729 27.9793 35.2932 27.7973 34.3963" stroke="black" stroke-linecap="round"/>
<path d="M34.6697 59.8066C34.6119 59.8066 30.9688 59.8066 24.7403 59.9396C20.6175 60.3389 17.2026 61.3378 14.0452 62.7128C12.7494 63.3631 12.0759 63.917 11.2734 65" stroke="black" stroke-linecap="round"/>
<path d="M39.6491 57.0167C40.1477 57.0167 42.2325 57.0124 45.6467 56.8978C47.233 56.7876 48.5221 56.5716 51.1242 55.7759C53.7263 54.9802 57.6022 53.6113 62.7455 51.9203" stroke="black" stroke-linecap="round"/>
</g>
<g opacity="0.27">
<path d="M12.9794 501.25C13.0281 501.365 13.5675 502.528 15.0987 505.348C17.3609 509.514 20.8139 513.829 23.445 517.174C25.1302 519.317 25.8531 520.031 26.1481 520.183C27.8187 521.042 27.2346 515.66 29.1665 513.147C31.4092 510.229 36.7051 508.48 40.171 507.51C40.7613 507.409 41.0401 507.407 41.4035 507.468C41.767 507.529 42.2066 507.654 43.0807 508.002" stroke="black" stroke-linecap="round"/>
<path d="M43.0807 508.002C42.9475 507.634 42.8494 505.9 43.4127 503.677C44.7412 500.836 48.1567 497.797 52.399 495.046C53.4136 494.531 54.5801 493.999 56.1607 493.538" stroke="black" stroke-linecap="round"/>
<path d="M12.6822 500.684C13.5874 499.393 16.671 495.611 19.8628 493.466C23.562 492.162 27.021 491.637 27.829 491.683C28.2051 491.713 28.5125 491.754 29.178 491.86" stroke="black" stroke-linecap="round"/>
<path d="M29.178 491.86C29.0336 491.485 28.8584 490.221 29.402 488.425C30.1947 485.807 32.4304 484.083 34.9932 481.941C35.9073 481.106 36.6414 480.494 37.923 479.829C38.8631 479.387 40.3914 478.735 41.9661 478.063" stroke="black" stroke-linecap="round"/>
<path d="M42.3116 477.839C42.3513 477.933 44.4504 480.166 47.8132 483.65C51 486.67 54.2266 489.773 56.0377 491.493C56.7266 492.168 56.9481 492.442 57.6313 493.35" stroke="black" stroke-linecap="round"/>
<path d="M42.9424 507.746C40.6761 505.323 34.6256 499.25 32.3792 497.169C31.241 495.95 30.288 494.801 29.527 493.398C29.3206 492.976 29.0957 492.508 28.6477 491.828" stroke="black" stroke-linecap="round"/>
<path d="M42.5953 510.562C42.553 510.58 39.8838 511.72 35.3671 513.776C32.4865 515.394 30.3349 517.282 28.5038 519.4C27.7825 520.339 27.4834 521.005 27.2753 522.146" stroke="black" stroke-linecap="round"/>
<path d="M45.2651 506.712C45.6303 506.557 47.1563 505.901 49.6176 504.739C50.7412 504.153 51.6099 503.572 53.2373 502.105C54.8646 500.637 57.2243 498.3 60.3994 495.302" stroke="black" stroke-linecap="round"/>
</g>
<g opacity="0.27">
<path d="M318.028 233.918C318.028 233.979 318.049 234.608 318.212 236.176C318.454 238.493 319.257 241.107 319.856 243.124C320.24 244.416 320.449 244.878 320.563 245.004C321.213 245.713 322.066 243.171 323.564 242.408C325.302 241.523 328.313 241.754 330.246 241.984C330.562 242.052 330.701 242.105 330.869 242.202C331.037 242.3 331.23 242.441 331.591 242.767" stroke="black" stroke-linecap="round"/>
<path d="M331.591 242.767C331.603 242.575 331.923 241.773 332.676 240.878C333.942 239.851 336.291 239.137 338.99 238.713C339.605 238.675 340.299 238.66 341.185 238.756" stroke="black" stroke-linecap="round"/>
<path d="M318 233.605C318.726 233.197 321.067 232.083 323.113 231.73C325.234 231.854 327.069 232.283 327.462 232.46C327.643 232.546 327.787 232.623 328.096 232.799" stroke="black" stroke-linecap="round"/>
<path d="M328.096 232.799C328.104 232.602 328.286 231.998 328.938 231.292C329.89 230.262 331.371 229.915 333.104 229.441C333.736 229.241 334.232 229.106 335.013 229.052C335.575 229.034 336.475 229.034 337.403 229.034" stroke="black" stroke-linecap="round"/>
<path d="M337.622 229C337.622 229.05 338.193 230.462 339.128 232.684C340.074 234.661 341.022 236.684 341.558 237.81C341.758 238.247 341.81 238.414 341.958 238.955" stroke="black" stroke-linecap="round"/>
<path d="M331.577 242.624C330.963 241.094 329.239 237.186 328.562 235.814C328.254 235.044 328.024 234.341 327.943 233.561C327.93 233.331 327.917 233.076 327.839 232.683" stroke="black" stroke-linecap="round"/>
<path d="M330.805 243.829C330.78 243.829 329.208 243.829 326.52 243.887C324.74 244.063 323.266 244.501 321.904 245.104C321.344 245.389 321.054 245.632 320.707 246.107" stroke="black" stroke-linecap="round"/>
<path d="M332.954 242.605C333.169 242.605 334.069 242.603 335.542 242.553C336.227 242.505 336.783 242.41 337.906 242.061C339.029 241.712 340.702 241.112 342.922 240.37" stroke="black" stroke-linecap="round"/>
</g>
<g opacity="0.27">
<path d="M26.4682 94.312C26.4682 94.3429 26.4508 94.5957 25.9093 96.4209C25.4324 98.0282 24.3544 100.942 23.2049 105.192C22.0554 109.442 20.8183 114.921 20.1604 117.811C19.5026 120.701 19.4616 120.836 19.3598 121.145" stroke="black" stroke-linecap="round"/>
<path d="M19.3538 121.794C19.3538 121.79 19.3538 121.785 20.7981 121.591C22.2424 121.397 25.131 121.014 27.0748 120.827C29.9236 120.554 31.3662 120.813 32.1981 121.049C33.1107 121.494 34.3065 122.586 35.377 123.769C35.7738 124.22 35.8731 124.369 36.1259 124.724" stroke="black" stroke-linecap="round"/>
<path d="M36.4985 125.305C36.5016 125.303 37.3996 124.731 39.3905 123.66C40.4564 123.087 41.7503 122.746 43.026 122.498C45.5283 122.012 46.9739 122.122 47.5526 122.241C48.7408 122.486 50.3013 123.175 51.8785 124.089C54.1605 125.78 54.6695 126.213 55.2144 126.791C55.4815 127.098 55.7292 127.431 56.0311 127.817" stroke="black" stroke-linecap="round"/>
<path d="M26.3451 93.8011C26.3856 93.7968 27.7484 93.1743 30.241 92.0922C31.3808 91.5975 32.3105 91.346 33.3719 91.1886C35.596 90.8586 36.9893 91.0184 37.6043 91.2374C40.0481 92.1076 41.0551 93.2869 41.4091 93.7115C41.4863 93.8248 41.5645 93.9565 41.7148 94.1825C41.8652 94.4085 42.0853 94.7248 42.4518 95.375" stroke="black" stroke-linecap="round"/>
<path d="M42.4518 95.375C42.484 95.375 43.8015 94.7074 45.9654 93.6349C47.1855 93.0302 47.9686 92.9305 49.0082 92.8498C50.6816 92.72 51.8265 92.8321 52.7944 93.0494C55.2409 93.5986 57.1108 94.1619 57.9006 94.645C59.2822 95.6423 60.2999 96.4418 60.5836 96.7439C60.712 96.8919 60.8088 97.029 60.9821 97.3925" stroke="black" stroke-linecap="round"/>
<path d="M61.1126 97.6302C60.8301 98.6267 60.1594 101.23 60.0049 103.381C59.8994 104.85 59.9324 107.098 59.8971 108.406C59.8535 110.021 59.7496 111.429 59.7374 113.197C59.7313 114.084 59.6692 115.897 59.6407 118.662C59.6109 121.555 59.3521 122.42 58.8482 124.647C57.8566 129.028 57.9999 129.774 57.7438 130.081C57.3584 129.642 57.0687 129.156 56.8588 128.732C56.7658 128.553 56.7004 128.45 56.5647 128.247" stroke="black" stroke-linecap="round"/>
<path d="M37.116 125.896C37.1281 125.896 37.1401 125.896 38.2471 125.918C39.3541 125.94 41.5557 125.984 43.811 126.298C46.0664 126.611 48.3088 127.194 50.333 127.813C52.3572 128.432 54.0952 129.071 55.1787 129.429C56.2623 129.787 56.6389 129.846 57.2159 129.968" stroke="black" stroke-linecap="round"/>
<path d="M36.5654 126.134C36.5307 126.134 36.4961 126.134 34.5803 125.955C32.6646 125.776 28.869 125.418 26.8415 125.207C24.814 124.996 24.6697 124.942 23.7787 124.592C22.8876 124.242 21.2543 123.599 20.3564 123.259C19.4585 122.919 19.3456 122.902 19 122.805" stroke="black" stroke-linecap="round"/>
<path d="M42.3471 95.5186C42.3471 95.5272 42.3471 95.8391 42.1967 97.2665C42.0782 98.3913 41.7456 100.309 41.4144 101.909C41.0832 103.509 40.7308 104.727 40.3337 106.764C39.9365 108.801 39.5053 111.62 39.2382 113.403C38.9712 115.186 38.8814 115.849 38.6619 117.011C38.4424 118.172 38.0959 119.813 37.8634 121.114C37.6308 122.415 37.5228 123.326 37.4504 123.878C37.3779 124.431 37.3444 124.596 37.1719 125.018" stroke="black" stroke-linecap="round"/>
</g>
<g opacity="0.27">
<path d="M338.163 261.032C338.163 261.051 338.151 261.206 337.776 262.326C337.447 263.312 336.701 265.1 335.907 267.707C335.112 270.315 334.257 273.676 333.802 275.449C333.347 277.222 333.319 277.305 333.249 277.495" stroke="black" stroke-linecap="round"/>
<path d="M333.245 277.893C333.245 277.89 333.245 277.887 334.243 277.768C335.241 277.649 337.238 277.414 338.582 277.3C340.552 277.132 341.549 277.291 342.124 277.436C342.755 277.708 343.581 278.378 344.322 279.104C344.596 279.381 344.664 279.473 344.839 279.69" stroke="black" stroke-linecap="round"/>
<path d="M345.097 280.047C345.099 280.045 345.72 279.694 347.096 279.038C347.833 278.686 348.727 278.477 349.609 278.325C351.339 278.027 352.338 278.094 352.739 278.167C353.56 278.317 354.639 278.74 355.729 279.3C357.307 280.338 357.658 280.604 358.035 280.958C358.22 281.147 358.391 281.351 358.6 281.588" stroke="black" stroke-linecap="round"/>
<path d="M338.078 260.719C338.106 260.716 339.048 260.334 340.771 259.67C341.559 259.367 342.202 259.212 342.935 259.116C344.473 258.913 345.436 259.011 345.861 259.146C347.551 259.68 348.247 260.403 348.491 260.664C348.545 260.733 348.599 260.814 348.703 260.952C348.807 261.091 348.959 261.285 349.212 261.684" stroke="black" stroke-linecap="round"/>
<path d="M349.212 261.684C349.235 261.684 350.145 261.275 351.641 260.617C352.485 260.246 353.026 260.184 353.745 260.135C354.902 260.055 355.693 260.124 356.362 260.257C358.053 260.594 359.346 260.94 359.892 261.236C360.847 261.848 361.551 262.339 361.747 262.524C361.836 262.615 361.903 262.699 362.022 262.922" stroke="black" stroke-linecap="round"/>
<path d="M362.113 263.068C361.917 263.679 361.454 265.276 361.347 266.596C361.274 267.497 361.297 268.876 361.272 269.679C361.242 270.67 361.17 271.533 361.162 272.618C361.158 273.162 361.115 274.275 361.095 275.971C361.075 277.746 360.896 278.277 360.547 279.643C359.862 282.331 359.961 282.788 359.784 282.977C359.517 282.707 359.317 282.41 359.172 282.149C359.108 282.04 359.062 281.976 358.969 281.852" stroke="black" stroke-linecap="round"/>
<path d="M345.524 280.41C345.532 280.41 345.54 280.41 346.306 280.423C347.071 280.436 348.593 280.463 350.152 280.656C351.711 280.848 353.261 281.205 354.661 281.585C356.06 281.965 357.261 282.357 358.01 282.577C358.76 282.797 359.02 282.833 359.419 282.907" stroke="black" stroke-linecap="round"/>
<path d="M345.143 280.555C345.119 280.555 345.095 280.555 343.771 280.445C342.446 280.336 339.822 280.116 338.421 279.987C337.019 279.857 336.919 279.824 336.304 279.609C335.688 279.395 334.558 279 333.938 278.791C333.317 278.583 333.239 278.572 333 278.513" stroke="black" stroke-linecap="round"/>
<path d="M349.14 261.772C349.14 261.778 349.14 261.969 349.036 262.845C348.954 263.535 348.724 264.711 348.495 265.693C348.266 266.674 348.023 267.422 347.748 268.671C347.474 269.921 347.175 271.65 346.991 272.745C346.806 273.839 346.744 274.245 346.592 274.958C346.441 275.671 346.201 276.677 346.04 277.475C345.88 278.273 345.805 278.833 345.755 279.171C345.705 279.51 345.682 279.612 345.562 279.87" stroke="black" stroke-linecap="round"/>
</g>
<g opacity="0.27">
<path d="M13.1628 573.032C13.1628 573.051 13.1508 573.206 12.7764 574.326C12.4467 575.312 11.7015 577.1 10.9068 579.707C10.1122 582.315 9.25697 585.676 8.80222 587.449C8.34747 589.222 8.31911 589.305 8.24871 589.495" stroke="black" stroke-linecap="round"/>
<path d="M8.24459 589.893C8.24459 589.89 8.24459 589.887 9.24304 589.768C10.2415 589.649 12.2384 589.414 13.5821 589.3C15.5515 589.132 16.5488 589.291 17.1239 589.436C17.7548 589.708 18.5814 590.378 19.3215 591.104C19.5958 591.381 19.6644 591.473 19.8392 591.69" stroke="black" stroke-linecap="round"/>
<path d="M20.0968 592.047C20.0989 592.045 20.7197 591.694 22.096 591.038C22.8329 590.686 23.7274 590.477 24.6093 590.325C26.3391 590.027 27.3384 590.094 27.7385 590.167C28.5599 590.317 29.6387 590.74 30.7291 591.3C32.3066 592.338 32.6585 592.604 33.0352 592.958C33.2198 593.147 33.391 593.351 33.5998 593.588" stroke="black" stroke-linecap="round"/>
<path d="M13.0777 572.719C13.1057 572.716 14.0478 572.334 15.771 571.67C16.5589 571.367 17.2016 571.212 17.9354 571.116C19.4729 570.913 20.4361 571.011 20.8612 571.146C22.5506 571.68 23.2468 572.403 23.4915 572.664C23.5448 572.733 23.5989 572.814 23.7029 572.952C23.8068 573.091 23.959 573.285 24.2123 573.684" stroke="black" stroke-linecap="round"/>
<path d="M24.2123 573.684C24.2346 573.684 25.1454 573.275 26.6413 572.617C27.4847 572.246 28.0261 572.184 28.7448 572.135C29.9016 572.055 30.6931 572.124 31.3622 572.257C33.0535 572.594 34.3461 572.94 34.8921 573.236C35.8473 573.848 36.5508 574.339 36.7469 574.524C36.8357 574.615 36.9026 574.699 37.0224 574.922" stroke="black" stroke-linecap="round"/>
<path d="M37.1126 575.068C36.9173 575.679 36.4537 577.276 36.3469 578.596C36.2739 579.497 36.2968 580.876 36.2723 581.679C36.2422 582.67 36.1704 583.533 36.162 584.618C36.1577 585.162 36.1148 586.275 36.0951 587.971C36.0745 589.746 35.8956 590.277 35.5472 591.643C34.8618 594.331 34.9608 594.788 34.7837 594.977C34.5174 594.707 34.317 594.41 34.1719 594.149C34.1077 594.04 34.0624 593.976 33.9687 593.852" stroke="black" stroke-linecap="round"/>
<path d="M20.5237 592.41C20.532 592.41 20.5404 592.41 21.3056 592.423C22.0709 592.436 23.5928 592.463 25.152 592.656C26.7111 592.848 28.2613 593.205 29.6607 593.585C31.06 593.965 32.2614 594.357 33.0105 594.577C33.7596 594.797 34.0199 594.833 34.4188 594.907" stroke="black" stroke-linecap="round"/>
<path d="M20.1431 592.555C20.1191 592.555 20.0951 592.555 18.7708 592.445C17.4464 592.336 14.8225 592.116 13.4208 591.987C12.0192 591.857 11.9195 591.824 11.3035 591.609C10.6875 591.395 9.55837 591 8.93766 590.791C8.31696 590.583 8.23892 590.572 8 590.513" stroke="black" stroke-linecap="round"/>
<path d="M24.14 573.772C24.14 573.778 24.14 573.969 24.036 574.845C23.9541 575.535 23.7241 576.711 23.4952 577.693C23.2662 578.674 23.0226 579.422 22.7481 580.671C22.4735 581.921 22.1754 583.65 21.9908 584.745C21.8062 585.839 21.7441 586.245 21.5923 586.958C21.4406 587.671 21.2011 588.677 21.0403 589.475C20.8796 590.273 20.8049 590.833 20.7548 591.171C20.7047 591.51 20.6815 591.612 20.5623 591.87" stroke="black" stroke-linecap="round"/>
</g>
<g opacity="0.27">
<path d="M331.163 196.032C331.163 196.051 331.151 196.206 330.776 197.326C330.447 198.312 329.701 200.1 328.907 202.707C328.112 205.315 327.257 208.676 326.802 210.449C326.347 212.222 326.319 212.305 326.249 212.495" stroke="black" stroke-linecap="round"/>
<path d="M326.245 212.893C326.245 212.89 326.245 212.887 327.243 212.768C328.241 212.649 330.238 212.414 331.582 212.3C333.552 212.132 334.549 212.291 335.124 212.436C335.755 212.708 336.581 213.378 337.322 214.104C337.596 214.381 337.664 214.473 337.839 214.69" stroke="black" stroke-linecap="round"/>
<path d="M338.097 215.047C338.099 215.045 338.72 214.694 340.096 214.038C340.833 213.686 341.727 213.477 342.609 213.325C344.339 213.027 345.338 213.094 345.739 213.167C346.56 213.317 347.639 213.74 348.729 214.3C350.307 215.338 350.658 215.604 351.035 215.958C351.22 216.147 351.391 216.351 351.6 216.588" stroke="black" stroke-linecap="round"/>
<path d="M331.078 195.719C331.106 195.716 332.048 195.334 333.771 194.67C334.559 194.367 335.202 194.212 335.935 194.116C337.473 193.913 338.436 194.011 338.861 194.146C340.551 194.68 341.247 195.403 341.491 195.664C341.545 195.733 341.599 195.814 341.703 195.952C341.807 196.091 341.959 196.285 342.212 196.684" stroke="black" stroke-linecap="round"/>
<path d="M342.212 196.684C342.235 196.684 343.145 196.275 344.641 195.617C345.485 195.246 346.026 195.184 346.745 195.135C347.902 195.055 348.693 195.124 349.362 195.257C351.053 195.594 352.346 195.94 352.892 196.236C353.847 196.848 354.551 197.339 354.747 197.524C354.836 197.615 354.903 197.699 355.022 197.922" stroke="black" stroke-linecap="round"/>
<path d="M355.113 198.068C354.917 198.679 354.454 200.276 354.347 201.596C354.274 202.497 354.297 203.876 354.272 204.679C354.242 205.67 354.17 206.533 354.162 207.618C354.158 208.162 354.115 209.275 354.095 210.971C354.075 212.746 353.896 213.277 353.547 214.643C352.862 217.331 352.961 217.788 352.784 217.977C352.517 217.707 352.317 217.41 352.172 217.149C352.108 217.04 352.062 216.976 351.969 216.852" stroke="black" stroke-linecap="round"/>
<path d="M338.524 215.41C338.532 215.41 338.54 215.41 339.306 215.423C340.071 215.436 341.593 215.463 343.152 215.656C344.711 215.848 346.261 216.205 347.661 216.585C349.06 216.965 350.261 217.357 351.01 217.577C351.76 217.797 352.02 217.833 352.419 217.907" stroke="black" stroke-linecap="round"/>
<path d="M338.143 215.555C338.119 215.555 338.095 215.555 336.771 215.445C335.446 215.336 332.822 215.116 331.421 214.987C330.019 214.857 329.919 214.824 329.304 214.609C328.688 214.395 327.558 214 326.938 213.791C326.317 213.583 326.239 213.572 326 213.513" stroke="black" stroke-linecap="round"/>
<path d="M342.14 196.772C342.14 196.778 342.14 196.969 342.036 197.845C341.954 198.535 341.724 199.711 341.495 200.693C341.266 201.674 341.023 202.422 340.748 203.671C340.474 204.921 340.175 206.65 339.991 207.745C339.806 208.839 339.744 209.245 339.592 209.958C339.441 210.671 339.201 211.677 339.04 212.475C338.88 213.273 338.805 213.833 338.755 214.171C338.705 214.51 338.682 214.612 338.562 214.87" stroke="black" stroke-linecap="round"/>
</g>
<g opacity="0.27">
<path d="M8.16276 359.032C8.16276 359.051 8.15078 359.206 7.77639 360.326C7.44671 361.312 6.70149 363.1 5.90684 365.707C5.11219 368.315 4.25697 371.676 3.80222 373.449C3.34747 375.222 3.31911 375.305 3.24871 375.495" stroke="black" stroke-linecap="round"/>
<path d="M3.24459 375.893C3.24459 375.89 3.24459 375.887 4.24303 375.768C5.24148 375.649 7.23837 375.414 8.58213 375.3C10.5515 375.132 11.5488 375.291 12.1239 375.436C12.7548 375.708 13.5814 376.378 14.3215 377.104C14.5958 377.381 14.6644 377.473 14.8392 377.69" stroke="black" stroke-linecap="round"/>
<path d="M15.0968 378.047C15.0989 378.045 15.7197 377.694 17.096 377.038C17.8329 376.686 18.7274 376.477 19.6093 376.325C21.3391 376.027 22.3384 376.094 22.7385 376.167C23.5599 376.317 24.6387 376.74 25.7291 377.3C27.3066 378.338 27.6585 378.604 28.0352 378.958C28.2198 379.147 28.391 379.351 28.5998 379.588" stroke="black" stroke-linecap="round"/>
<path d="M8.07771 358.719C8.1057 358.716 9.04779 358.334 10.771 357.67C11.5589 357.367 12.2016 357.212 12.9354 357.116C14.4729 356.913 15.4361 357.011 15.8612 357.146C17.5506 357.68 18.2468 358.403 18.4915 358.664C18.5448 358.733 18.5989 358.814 18.7029 358.952C18.8068 359.091 18.959 359.285 19.2123 359.684" stroke="black" stroke-linecap="round"/>
<path d="M19.2123 359.684C19.2346 359.684 20.1454 359.275 21.6413 358.617C22.4847 358.246 23.0261 358.184 23.7448 358.135C24.9016 358.055 25.6931 358.124 26.3622 358.257C28.0535 358.594 29.3461 358.94 29.8921 359.236C30.8473 359.848 31.5508 360.339 31.7469 360.524C31.8357 360.615 31.9026 360.699 32.0224 360.922" stroke="black" stroke-linecap="round"/>
<path d="M32.1126 361.068C31.9173 361.679 31.4537 363.276 31.3469 364.596C31.2739 365.497 31.2968 366.876 31.2723 367.679C31.2422 368.67 31.1704 369.533 31.162 370.618C31.1577 371.162 31.1148 372.275 31.0951 373.971C31.0745 375.746 30.8955 376.277 30.5472 377.643C29.8618 380.331 29.9608 380.788 29.7837 380.977C29.5173 380.707 29.317 380.41 29.1719 380.149C29.1077 380.04 29.0624 379.976 28.9687 379.852" stroke="black" stroke-linecap="round"/>
<path d="M15.5237 378.41C15.532 378.41 15.5404 378.41 16.3056 378.423C17.0709 378.436 18.5928 378.463 20.152 378.656C21.7111 378.848 23.2613 379.205 24.6606 379.585C26.06 379.965 27.2614 380.357 28.0105 380.577C28.7596 380.797 29.0199 380.833 29.4188 380.907" stroke="black" stroke-linecap="round"/>
<path d="M15.1431 378.555C15.1191 378.555 15.0951 378.555 13.7708 378.445C12.4464 378.336 9.82246 378.116 8.42084 377.987C7.01923 377.857 6.91947 377.824 6.3035 377.609C5.68753 377.395 4.55837 377 3.93766 376.791C3.31696 376.583 3.23892 376.572 3 376.513" stroke="black" stroke-linecap="round"/>
<path d="M19.14 359.772C19.14 359.778 19.14 359.969 19.036 360.845C18.9541 361.535 18.7241 362.711 18.4952 363.693C18.2662 364.674 18.0226 365.422 17.7481 366.671C17.4735 367.921 17.1754 369.65 16.9908 370.745C16.8062 371.839 16.7441 372.245 16.5923 372.958C16.4406 373.671 16.2011 374.677 16.0403 375.475C15.8796 376.273 15.8049 376.833 15.7548 377.171C15.7047 377.51 15.6815 377.612 15.5623 377.87" stroke="black" stroke-linecap="round"/>
</g>
<g opacity="0.27">
<path d="M33.1628 247.032C33.1628 247.051 33.1508 247.206 32.7764 248.326C32.4467 249.312 31.7015 251.1 30.9068 253.707C30.1122 256.315 29.257 259.676 28.8022 261.449C28.3475 263.222 28.3191 263.305 28.2487 263.495" stroke="black" stroke-linecap="round"/>
<path d="M28.2446 263.893C28.2446 263.89 28.2446 263.887 29.243 263.768C30.2415 263.649 32.2384 263.414 33.5821 263.3C35.5515 263.132 36.5488 263.291 37.1239 263.436C37.7548 263.708 38.5814 264.378 39.3215 265.104C39.5958 265.381 39.6644 265.473 39.8392 265.69" stroke="black" stroke-linecap="round"/>
<path d="M40.0968 266.047C40.0989 266.045 40.7197 265.694 42.096 265.038C42.8329 264.686 43.7274 264.477 44.6093 264.325C46.3391 264.027 47.3384 264.094 47.7385 264.167C48.5599 264.317 49.6387 264.74 50.7291 265.3C52.3066 266.338 52.6585 266.604 53.0352 266.958C53.2198 267.147 53.391 267.351 53.5998 267.588" stroke="black" stroke-linecap="round"/>
<path d="M33.0777 246.719C33.1057 246.716 34.0478 246.334 35.771 245.67C36.5589 245.367 37.2016 245.212 37.9354 245.116C39.4729 244.913 40.4361 245.011 40.8612 245.146C42.5506 245.68 43.2468 246.403 43.4915 246.664C43.5448 246.733 43.5989 246.814 43.7029 246.952C43.8068 247.091 43.959 247.285 44.2123 247.684" stroke="black" stroke-linecap="round"/>
<path d="M44.2123 247.684C44.2346 247.684 45.1454 247.275 46.6413 246.617C47.4847 246.246 48.0261 246.184 48.7448 246.135C49.9016 246.055 50.6931 246.124 51.3622 246.257C53.0535 246.594 54.3461 246.94 54.8921 247.236C55.8473 247.848 56.5508 248.339 56.7469 248.524C56.8357 248.615 56.9026 248.699 57.0224 248.922" stroke="black" stroke-linecap="round"/>
<path d="M57.1126 249.068C56.9173 249.679 56.4537 251.276 56.3469 252.596C56.2739 253.497 56.2968 254.876 56.2723 255.679C56.2422 256.67 56.1704 257.533 56.162 258.618C56.1577 259.162 56.1148 260.275 56.0951 261.971C56.0745 263.746 55.8956 264.277 55.5472 265.643C54.8618 268.331 54.9608 268.788 54.7837 268.977C54.5174 268.707 54.317 268.41 54.1719 268.149C54.1077 268.04 54.0624 267.976 53.9687 267.852" stroke="black" stroke-linecap="round"/>
<path d="M40.5237 266.41C40.532 266.41 40.5404 266.41 41.3056 266.423C42.0709 266.436 43.5928 266.463 45.152 266.656C46.7111 266.848 48.2613 267.205 49.6607 267.585C51.06 267.965 52.2614 268.357 53.0105 268.577C53.7596 268.797 54.0199 268.833 54.4188 268.907" stroke="black" stroke-linecap="round"/>
<path d="M40.1431 266.555C40.1191 266.555 40.0951 266.555 38.7708 266.445C37.4464 266.336 34.8225 266.116 33.4208 265.987C32.0192 265.857 31.9195 265.824 31.3035 265.609C30.6875 265.395 29.5584 265 28.9377 264.791C28.317 264.583 28.2389 264.572 28 264.513" stroke="black" stroke-linecap="round"/>
<path d="M44.14 247.772C44.14 247.778 44.14 247.969 44.036 248.845C43.9541 249.535 43.7241 250.711 43.4952 251.693C43.2662 252.674 43.0226 253.422 42.7481 254.671C42.4735 255.921 42.1754 257.65 41.9908 258.745C41.8062 259.839 41.7441 260.245 41.5923 260.958C41.4406 261.671 41.2011 262.677 41.0403 263.475C40.8796 264.273 40.8049 264.833 40.7548 265.171C40.7047 265.51 40.6815 265.612 40.5623 265.87" stroke="black" stroke-linecap="round"/>
</g>
<g opacity="0.27">
<path d="M4.2557 154.632C4.2557 154.653 4.31188 154.95 4.89754 156.629C5.38836 158.035 6.42813 160.512 7.2128 162.658C7.99747 164.804 8.53536 166.531 9.07545 168.038C10.1415 170.782 10.753 172.183 10.8933 172.448C10.964 172.586 11.0336 172.731 11.2237 173.077" stroke="black" stroke-linecap="round"/>
<path d="M4 154.876C4.34625 154.55 5.42178 153.64 7.3377 152.63C8.74821 151.886 10.381 151.785 11.6052 151.662C13.5473 151.827 15.0343 152.438 16.1272 153.18C16.8097 153.701 17.7517 154.514 18.7593 155.435" stroke="black" stroke-linecap="round"/>
<path d="M18.7593 155.435C18.7752 154.927 18.9102 153.5 19.6307 151.695C20.2164 150.228 21.5563 149.288 22.5793 148.826C25.2437 147.62 27.4239 148.013 28.6244 148.285C28.9022 148.451 29.3136 148.728 29.5992 148.915C29.8847 149.101 30.0318 149.189 30.2631 149.348" stroke="black" stroke-linecap="round"/>
<path d="M11.4735 173.821C11.5506 173.658 12.5835 172.537 16.8292 169.787C19.2685 168.207 21.0849 168.087 21.6488 168.024C23.2286 168.002 23.8276 168.128 24.366 168.312C24.5882 168.404 24.7066 168.492 24.8651 168.675" stroke="black" stroke-linecap="round"/>
<path d="M24.8651 168.675C24.8715 168.01 24.9636 166.302 25.319 165.523C25.8817 164.289 27.4235 163.534 29.8379 162.984C35.1343 162.815 36.0252 163.157 36.7015 163.555C36.8251 163.661 36.9359 163.783 37.2727 164.097" stroke="black" stroke-linecap="round"/>
<path d="M30.4071 149.32C30.4071 149.56 30.985 151.42 32.6182 154.882C33.6737 156.941 35.1893 159.612 36.0634 161.217C36.9375 162.822 37.1243 163.279 37.3715 164.05" stroke="black" stroke-linecap="round"/>
<path d="M24.4598 168.152C24.4598 168.141 24.4015 167.934 23.4955 166.108C22.6813 164.467 21.0123 161.444 20.1365 159.792C19.194 157.967 18.9997 157.205 18.7541 156.154C18.6341 155.688 18.5235 155.358 18.373 154.947" stroke="black" stroke-linecap="round"/>
<path d="M11.9144 174.251C11.9195 174.251 11.9247 174.251 13.246 173.929C14.5674 173.606 17.2048 172.96 19.4008 172.228C21.5967 171.496 23.2712 170.698 25.1586 169.824" stroke="black" stroke-linecap="round"/>
<path d="M25.3515 169.468C25.4264 169.432 26.0985 169.054 28.5562 167.914C30.3561 167.079 33.3757 165.941 34.9954 165.291C36.768 164.568 37.0814 164.431 37.3873 164.321C37.5375 164.273 37.6774 164.243 37.8446 164.212" stroke="black" stroke-linecap="round"/>
</g>
<g opacity="0.27">
<path d="M320.619 103.24C320.619 103.274 320.606 105.312 320.273 110.086C319.954 112.839 319.33 116.264 318.996 119.593C318.662 122.923 318.637 126.053 318.611 129.279" stroke="black" stroke-linecap="round"/>
<path d="M318.611 129.399C319.374 128.942 324.209 126.797 327.19 125.873C329.611 125.123 333.632 125.888 335.432 126.668C336.179 127.066 337.296 127.701 337.985 128.119C338.674 128.538 338.9 128.721 339.307 129.084" stroke="black" stroke-linecap="round"/>
<path d="M339.307 129.205C339.461 128.803 340.588 127.253 342.524 125.587C343.848 124.448 345.916 123.755 347.955 123.18C349.637 122.706 352.071 122.597 355.172 122.754C357.903 123.385 359.522 124.009 360.224 124.511C360.605 124.836 361.038 125.304 361.598 125.964" stroke="black" stroke-linecap="round"/>
<path d="M361.598 125.964C361.598 125 361.326 120.315 360.493 114.43C359.6 108.128 358.193 104.707 358.015 103.775C357.87 103.096 357.612 101.999 357.35 101.154C357.087 100.309 356.828 99.7493 356.228 98.7257" stroke="black" stroke-linecap="round"/>
<path d="M320.318 103.674C320.414 103.646 322.998 102.897 327.504 101.675C333.208 100.128 336.394 100.949 337.628 101.624C338.472 102.086 338.961 103.123 339.522 103.724C341.117 105.432 344.35 100.222 345.292 99.4596C346.797 98.2431 350.217 97.9611 352.882 98.0041C353.655 98.1464 354.555 98.431 355.115 98.6585C355.674 98.886 355.866 99.0479 356.229 99.5461" stroke="black" stroke-linecap="round"/>
<path d="M340.031 104.125C340.031 104.134 340.031 104.143 340.055 107.052C340.078 109.962 340.126 115.772 340.173 118.957C340.266 122.527 340.355 123.341 340.421 124.794C340.443 125.83 340.443 127.471 340.387 129.162" stroke="black" stroke-linecap="round"/>
<path d="M340.387 129.162C340.439 129.162 342.178 128.884 347.088 128.004C350.286 127.402 354.918 126.485 357.545 126.013C360.171 125.54 360.651 125.54 361.146 125.54" stroke="black" stroke-linecap="round"/>
<path d="M340.625 129.19C340.608 129.19 340.59 129.19 338.013 129.204C335.436 129.218 330.299 129.247 327.403 129.307C323.216 129.608 321.49 129.81 319.591 129.955C318.865 130.011 318.622 130.032 318 130.112" stroke="black" stroke-linecap="round"/>
</g>
<g opacity="0.27">
<path d="M14.9432 193.226C14.9245 193.271 14.2077 194.892 11.4487 199.831C9.39676 203.171 6.02153 208.205 4.0183 211.331C2.01507 214.457 1.48612 215.523 0.904861 216.607" stroke="black" stroke-linecap="round"/>
<path d="M0.756518 216.545C1.19643 216.237 3.50741 215.47 7.22218 215.649C14.4411 215.996 17.0942 218.757 18.3947 220.061C19.0353 220.875 19.4896 221.634 19.771 222.468C19.9132 222.975 20.0542 223.655 20.1703 224.74" stroke="black" stroke-linecap="round"/>
<path d="M20.1085 224.889C20.6202 224.744 26.0851 224.636 31.2679 225.441C36.1399 226.199 37.6867 229.194 38.9231 230.842C39.1887 231.387 39.4741 232.172 39.6517 232.789C39.8292 233.405 39.8902 233.829 39.953 234.265" stroke="black" stroke-linecap="round"/>
<path d="M40.0396 234.475C40.0583 234.43 41.1543 232.035 43.3685 227.588C45.3317 223.645 47.164 221.404 48.3596 218.857C50.4936 213.84 51.9025 210.309 52.0856 209.604C52.1981 209.213 52.3502 208.756 52.5734 207.693" stroke="black" stroke-linecap="round"/>
<path d="M14.7335 193.179C15.0161 192.967 17.5578 192.091 21.5466 191.696C25.0841 191.346 28.5768 193.505 30.6837 195.048C33.1211 198.56 33.6576 199.998 33.867 201.311C33.8651 201.634 33.8222 201.951 33.7781 202.277" stroke="black" stroke-linecap="round"/>
<path d="M33.7781 202.277C34.2495 202.002 35.9472 201.291 38.4955 201.03C41.251 200.748 46.0257 203.119 48.4291 204.528C49.776 205.863 50.5285 206.941 51.081 207.753C51.3454 208.114 51.5774 208.373 51.9786 208.833" stroke="black" stroke-linecap="round"/>
<path d="M34.3711 202.202C33.9802 203.062 32.4592 205.66 28.5516 210.594C25.8018 215.031 23.0387 220.229 21.2971 223.675C20.6193 224.975 20.3597 225.364 19.5846 226.426" stroke="black" stroke-linecap="round"/>
<path d="M1.38823 217.582C1.41762 217.595 1.44701 217.607 4.48096 218.875C7.51491 220.142 13.5525 222.665 16.913 224.104C20.2735 225.543 20.7738 225.821 21.5969 226.543" stroke="black" stroke-linecap="round"/>
<path d="M20.8832 226.6C20.9169 226.614 20.9506 226.628 24.6044 228.187C28.2583 229.747 35.5314 232.852 43.3257 236.392" stroke="black" stroke-linecap="round"/>
<path d="M42.9647 236.232C44.3069 233.006 48.0529 224.247 49.3619 221.75C50.6384 219.063 52.8485 214.006 53.8162 211.423C54.093 210.451 53.9347 210.167 53.2998 209.678" stroke="black" stroke-linecap="round"/>
<path d="M41.63 235.298C41.6345 235.287 42.7173 232.837 44.398 229.055C45.0649 227.555 45.6919 226.162 46.8096 223.732C48.8687 220.079 49.2988 219.254 50.1104 217.633C50.6945 216.352 51.6284 214.143 52.6173 211.595" stroke="black" stroke-linecap="round"/>
</g>
<g opacity="0.27">
<path d="M325.105 5.98177C325.092 6.02856 324.556 7.71867 322.354 12.9292C320.679 16.4736 317.875 21.8461 316.225 25.1726C314.576 28.499 314.167 29.6167 313.707 30.7571" stroke="black" stroke-linecap="round"/>
<path d="M313.553 30.712C313.957 30.3574 316.17 29.3431 319.882 29.1144C327.096 28.6699 330.035 31.1242 331.47 32.2789C332.196 33.0174 332.73 33.7225 333.101 34.5203C333.298 35.0093 333.513 35.6692 333.747 36.7357" stroke="black" stroke-linecap="round"/>
<path d="M333.701 36.89C334.194 36.6904 339.615 35.9853 344.854 36.2192C349.78 36.4391 351.645 39.2473 353.054 40.7507C353.378 41.2629 353.747 42.0124 353.991 42.6057C354.235 43.199 354.342 43.6134 354.452 44.0403" stroke="black" stroke-linecap="round"/>
<path d="M354.561 44.2397C354.575 44.193 355.402 41.6919 357.117 37.0298C358.638 32.8962 360.214 30.468 361.124 27.8058C362.696 22.5854 363.711 18.9216 363.816 18.2C363.885 17.7993 363.986 17.3284 364.092 16.2479" stroke="black" stroke-linecap="round"/>
<path d="M324.892 5.95842C325.149 5.71613 327.58 4.5678 331.502 3.73893C334.98 3.00382 338.688 4.7688 340.951 6.07165C343.757 9.29625 344.448 10.6672 344.8 11.9494C344.833 12.2706 344.825 12.5903 344.817 12.9196" stroke="black" stroke-linecap="round"/>
<path d="M344.817 12.9196C345.255 12.5944 346.865 11.7018 349.37 11.1637C352.078 10.5819 357.083 12.4166 359.626 13.5548C361.111 14.7342 361.977 15.7237 362.615 16.47C362.917 16.8003 363.176 17.0326 363.625 17.4462" stroke="black" stroke-linecap="round"/>
<path d="M345.398 12.7796C345.104 13.6777 343.876 16.4265 340.531 21.7575C338.283 26.4686 336.105 31.9373 334.75 35.5533C334.219 36.9198 334.003 37.3352 333.349 38.475" stroke="black" stroke-linecap="round"/>
<path d="M314.295 31.6743C314.325 31.6832 314.356 31.6921 317.51 32.6206C320.664 33.549 326.942 35.3966 330.439 36.4594C333.937 37.5221 334.465 37.744 335.362 38.3717" stroke="black" stroke-linecap="round"/>
<path d="M334.659 38.5059C334.694 38.5162 334.729 38.5264 338.531 39.6773C342.334 40.8281 349.903 43.1193 358.037 45.7859" stroke="black" stroke-linecap="round"/>
<path d="M357.661 45.6658C358.642 42.313 361.408 33.1964 362.436 30.5713C363.411 27.7613 365.055 22.4926 365.735 19.8196C365.904 18.8233 365.715 18.5581 365.031 18.1413" stroke="black" stroke-linecap="round"/>
<path d="M356.232 44.8839C356.235 44.8726 357.044 42.3186 358.301 38.3759C358.8 36.8113 359.271 35.3588 360.116 32.8207C361.763 28.9643 362.101 28.0976 362.73 26.3971C363.171 25.0606 363.857 22.7626 364.562 20.1216" stroke="black" stroke-linecap="round"/>
</g>
<g opacity="0.27">
<path d="M316.959 364.851C316.981 364.894 317.747 366.493 319.703 371.801C320.905 375.532 322.532 381.37 323.603 384.925C324.675 388.48 325.14 389.576 325.585 390.722" stroke="black" stroke-linecap="round"/>
<path d="M325.442 390.794C325.494 390.26 326.415 388.006 328.967 385.301C333.926 380.044 337.749 379.825 339.586 379.686C340.621 379.728 341.493 379.877 342.309 380.206C342.787 380.428 343.395 380.763 344.295 381.381" stroke="black" stroke-linecap="round"/>
<path d="M344.367 381.524C344.59 381.042 348.063 376.821 352.046 373.408C355.791 370.2 359.072 370.974 361.128 371.107C361.714 371.26 362.497 371.554 363.08 371.82C363.664 372.086 364.025 372.316 364.398 372.552" stroke="black" stroke-linecap="round"/>
<path d="M364.614 372.623C364.592 372.579 363.485 370.188 361.548 365.614C359.831 361.558 359.321 358.709 358.164 356.144C355.742 351.26 353.976 347.893 353.56 347.294C353.336 346.955 353.088 346.542 352.426 345.681" stroke="black" stroke-linecap="round"/>
<path d="M316.788 364.98C316.81 364.627 317.798 362.127 320.093 358.84C322.128 355.925 326.04 354.678 328.582 354.081C332.835 354.514 334.277 355.042 335.41 355.737C335.654 355.949 335.867 356.188 336.086 356.434" stroke="black" stroke-linecap="round"/>
<path d="M336.086 356.433C336.184 355.896 336.748 354.144 338.207 352.039C339.785 349.763 344.692 347.679 347.326 346.77C349.216 346.615 350.524 346.745 351.5 346.853C351.947 346.888 352.294 346.88 352.905 346.875" stroke="black" stroke-linecap="round"/>
<path d="M336.415 355.934C336.814 356.791 337.798 359.636 339.003 365.813C340.584 370.788 342.734 376.267 344.219 379.832C344.765 381.192 344.892 381.643 345.194 382.922" stroke="black" stroke-linecap="round"/>
<path d="M326.641 390.99C326.669 390.975 326.697 390.961 329.634 389.481C332.57 388.002 338.414 385.057 341.693 383.441C344.972 381.825 345.508 381.626 346.592 381.47" stroke="black" stroke-linecap="round"/>
<path d="M346.171 382.049C346.203 382.032 346.236 382.016 349.797 380.255C353.359 378.495 360.448 374.991 368.207 371.374" stroke="black" stroke-linecap="round"/>
<path d="M367.85 371.544C366.274 368.426 362.058 359.883 361.013 357.264C359.803 354.547 357.399 349.579 356.067 347.164C355.509 346.321 355.19 346.257 354.406 346.421" stroke="black" stroke-linecap="round"/>
<path d="M366.273 371.95C366.268 371.94 365.111 369.523 363.332 365.787C362.626 364.304 361.977 362.922 360.858 360.492C359.423 356.552 359.076 355.689 358.373 354.018C357.78 352.741 356.71 350.595 355.418 348.186" stroke="black" stroke-linecap="round"/>
</g>
<g opacity="0.27">
<path d="M15.1388 409.021C15.1388 409.07 15.1 410.842 14.45 416.462C13.8389 420.334 12.6566 426.278 12.0082 429.934C11.3598 433.59 11.2811 434.777 11.1607 436.001" stroke="black" stroke-linecap="round"/>
<path d="M11 436.001C11.2877 435.547 13.1269 433.952 16.6252 432.689C23.4233 430.236 26.9335 431.766 28.6355 432.471C29.5394 432.976 30.2506 433.502 30.8307 434.164C31.157 434.578 31.5482 435.151 32.0725 436.109" stroke="black" stroke-linecap="round"/>
<path d="M32.0724 436.269C32.4893 435.939 37.4933 433.74 42.5877 432.492C47.3767 431.319 49.9556 433.491 51.7303 434.538C52.1848 434.938 52.7501 435.554 53.1508 436.055C53.5515 436.555 53.7706 436.923 53.9962 437.302" stroke="black" stroke-linecap="round"/>
<path d="M54.1569 437.463C54.1569 437.414 54.2484 434.781 54.5843 429.825C54.8821 425.431 55.7127 422.658 55.8381 419.847C55.8807 414.395 55.8249 410.594 55.7228 409.872C55.6765 409.468 55.6413 408.987 55.4392 407.921" stroke="black" stroke-linecap="round"/>
<path d="M14.9273 409.059C15.1065 408.754 17.1167 406.969 20.6475 405.072C23.7789 403.389 27.8333 404.041 30.3712 404.656C33.9708 406.962 35.0187 408.084 35.7166 409.215C35.8388 409.514 35.921 409.823 36.0056 410.142" stroke="black" stroke-linecap="round"/>
<path d="M36.0056 410.142C36.3351 409.706 37.6293 408.397 39.8817 407.177C42.3173 405.858 47.6365 406.213 50.3969 406.591C52.1532 407.305 53.2622 408.012 54.0841 408.549C54.4671 408.781 54.7809 408.931 55.3281 409.202" stroke="black" stroke-linecap="round"/>
<path d="M36.5241 409.844C36.4938 410.789 36.0877 413.772 34.3754 419.828C33.5414 424.981 32.9873 430.841 32.7034 434.692C32.5772 436.153 32.4871 436.612 32.1792 437.89" stroke="black" stroke-linecap="round"/>
<path d="M11.9818 436.716C12.0137 436.716 12.0455 436.716 15.3337 436.721C18.6218 436.726 25.1654 436.735 28.8207 436.773C32.476 436.81 33.0449 436.875 34.0822 437.225" stroke="black" stroke-linecap="round"/>
<path d="M33.445 437.551C33.4815 437.551 33.518 437.551 37.4907 437.588C41.4633 437.624 49.3711 437.696 57.9274 437.97" stroke="black" stroke-linecap="round"/>
<path d="M57.5323 437.96C57.5323 434.467 57.6255 424.941 57.8747 422.132C58.021 419.162 58.1185 413.643 58.0196 410.887C57.9018 409.883 57.6465 409.682 56.8724 409.474" stroke="black" stroke-linecap="round"/>
<path d="M55.9415 437.611C55.9415 437.6 55.9998 434.921 56.0985 430.784C56.1377 429.143 56.1817 427.616 56.2799 424.943C56.7774 420.779 56.8576 419.853 56.984 418.044C57.0314 416.637 57.0448 414.239 56.9789 411.506" stroke="black" stroke-linecap="round"/>
</g>
<g opacity="0.27">
<path d="M312.064 516.212C312.064 516.351 312.113 517.786 312.492 521.36C313.051 526.642 314.911 532.601 316.301 537.2C317.191 540.145 317.673 541.198 317.939 541.484C319.445 543.102 321.422 537.306 324.891 535.568C328.918 533.55 335.895 534.076 340.374 534.6C341.106 534.755 341.429 534.875 341.818 535.098C342.208 535.321 342.654 535.643 343.491 536.385" stroke="black" stroke-linecap="round"/>
<path d="M343.491 536.385C343.519 535.947 344.26 534.12 346.006 532.078C348.94 529.738 354.381 528.11 360.634 527.142C362.06 527.058 363.669 527.022 365.721 527.242" stroke="black" stroke-linecap="round"/>
<path d="M312 515.498C313.681 514.567 319.105 512.028 323.847 511.223C328.761 511.506 333.014 512.485 333.923 512.888C334.343 513.083 334.678 513.26 335.394 513.662" stroke="black" stroke-linecap="round"/>
<path d="M335.394 513.662C335.412 513.212 335.832 511.835 337.345 510.225C339.551 507.878 342.981 507.086 346.996 506.006C348.462 505.549 349.612 505.241 351.419 505.12C352.722 505.078 354.808 505.078 356.957 505.078" stroke="black" stroke-linecap="round"/>
<path d="M357.466 505C357.466 505.113 358.79 508.334 360.955 513.398C363.146 517.907 365.343 522.518 366.586 525.084C367.049 526.081 367.17 526.46 367.512 527.695" stroke="black" stroke-linecap="round"/>
<path d="M343.458 536.06C342.035 532.571 338.042 523.661 336.474 520.533C335.76 518.779 335.226 517.177 335.039 515.399C335.009 514.873 334.979 514.293 334.797 513.396" stroke="black" stroke-linecap="round"/>
<path d="M341.67 538.807C341.612 538.807 337.969 538.807 331.74 538.94C327.617 539.339 324.203 540.338 321.045 541.713C319.749 542.363 319.076 542.917 318.273 544" stroke="black" stroke-linecap="round"/>
<path d="M346.649 536.017C347.148 536.017 349.232 536.012 352.647 535.898C354.233 535.788 355.522 535.572 358.124 534.776C360.726 533.98 364.602 532.611 369.745 530.92" stroke="black" stroke-linecap="round"/>
</g>
<g opacity="0.27">
<path d="M333.468 573.312C333.468 573.343 333.451 573.596 332.909 575.421C332.432 577.028 331.354 579.942 330.205 584.192C329.055 588.442 327.818 593.921 327.16 596.811C326.503 599.701 326.462 599.836 326.36 600.145" stroke="black" stroke-linecap="round"/>
<path d="M326.354 600.794C326.354 600.79 326.354 600.785 327.798 600.591C329.242 600.397 332.131 600.014 334.075 599.827C336.924 599.554 338.366 599.813 339.198 600.049C340.111 600.494 341.306 601.586 342.377 602.769C342.774 603.22 342.873 603.369 343.126 603.724" stroke="black" stroke-linecap="round"/>
<path d="M343.498 604.305C343.502 604.303 344.4 603.731 346.39 602.66C347.456 602.087 348.75 601.746 350.026 601.498C352.528 601.012 353.974 601.122 354.553 601.241C355.741 601.486 357.301 602.175 358.879 603.089C361.161 604.78 361.669 605.213 362.214 605.791C362.481 606.098 362.729 606.431 363.031 606.817" stroke="black" stroke-linecap="round"/>
<path d="M333.345 572.801C333.386 572.797 334.748 572.174 337.241 571.092C338.381 570.597 339.311 570.346 340.372 570.189C342.596 569.859 343.989 570.018 344.604 570.237C347.048 571.108 348.055 572.287 348.409 572.711C348.486 572.825 348.564 572.956 348.715 573.182C348.865 573.408 349.085 573.725 349.452 574.375" stroke="black" stroke-linecap="round"/>
<path d="M349.452 574.375C349.484 574.375 350.802 573.707 352.965 572.635C354.186 572.03 354.969 571.93 356.008 571.85C357.682 571.72 358.826 571.832 359.794 572.049C362.241 572.599 364.111 573.162 364.901 573.645C366.282 574.642 367.3 575.442 367.584 575.744C367.712 575.892 367.809 576.029 367.982 576.392" stroke="black" stroke-linecap="round"/>
<path d="M368.113 576.63C367.83 577.627 367.159 580.23 367.005 582.381C366.899 583.85 366.932 586.098 366.897 587.406C366.853 589.021 366.75 590.429 366.737 592.197C366.731 593.084 366.669 594.897 366.641 597.662C366.611 600.555 366.352 601.42 365.848 603.647C364.857 608.028 365 608.774 364.744 609.081C364.358 608.642 364.069 608.156 363.859 607.732C363.766 607.553 363.7 607.45 363.565 607.247" stroke="black" stroke-linecap="round"/>
<path d="M344.116 604.896C344.128 604.896 344.14 604.896 345.247 604.918C346.354 604.94 348.556 604.984 350.811 605.298C353.066 605.611 355.309 606.194 357.333 606.813C359.357 607.432 361.095 608.071 362.179 608.429C363.262 608.787 363.639 608.846 364.216 608.968" stroke="black" stroke-linecap="round"/>
<path d="M343.565 605.134C343.531 605.134 343.496 605.134 341.58 604.955C339.665 604.776 335.869 604.418 333.841 604.207C331.814 603.996 331.67 603.942 330.779 603.592C329.888 603.242 328.254 602.598 327.356 602.259C326.458 601.919 326.346 601.902 326 601.805" stroke="black" stroke-linecap="round"/>
<path d="M349.347 574.519C349.347 574.527 349.347 574.839 349.197 576.267C349.078 577.391 348.746 579.309 348.414 580.909C348.083 582.509 347.731 583.727 347.334 585.764C346.937 587.801 346.505 590.62 346.238 592.403C345.971 594.186 345.881 594.849 345.662 596.011C345.442 597.172 345.096 598.813 344.863 600.114C344.631 601.415 344.523 602.326 344.45 602.878C344.378 603.431 344.344 603.596 344.172 604.018" stroke="black" stroke-linecap="round"/>
</g>
<g opacity="0.27">
<path d="M311.256 633.632C311.256 633.653 311.312 633.95 311.898 635.629C312.388 637.035 313.428 639.512 314.213 641.658C314.997 643.804 315.535 645.531 316.075 647.038C317.142 649.782 317.753 651.183 317.893 651.448C317.964 651.586 318.034 651.731 318.224 652.077" stroke="black" stroke-linecap="round"/>
<path d="M311 633.876C311.346 633.55 312.422 632.64 314.338 631.63C315.748 630.886 317.381 630.785 318.605 630.662C320.547 630.827 322.034 631.438 323.127 632.18C323.81 632.701 324.752 633.514 325.759 634.435" stroke="black" stroke-linecap="round"/>
<path d="M325.759 634.435C325.775 633.927 325.91 632.5 326.631 630.695C327.216 629.228 328.556 628.288 329.579 627.826C332.244 626.62 334.424 627.013 335.624 627.285C335.902 627.451 336.314 627.728 336.599 627.915C336.885 628.101 337.032 628.189 337.263 628.348" stroke="black" stroke-linecap="round"/>
<path d="M318.474 652.821C318.551 652.658 319.584 651.537 323.829 648.787C326.269 647.207 328.085 647.087 328.649 647.024C330.229 647.002 330.828 647.128 331.366 647.312C331.588 647.404 331.707 647.492 331.865 647.675" stroke="black" stroke-linecap="round"/>
<path d="M331.865 647.675C331.871 647.01 331.964 645.302 332.319 644.523C332.882 643.289 334.424 642.534 336.838 641.984C342.134 641.815 343.025 642.157 343.702 642.555C343.825 642.661 343.936 642.783 344.273 643.097" stroke="black" stroke-linecap="round"/>
<path d="M337.407 628.32C337.407 628.56 337.985 630.42 339.618 633.882C340.674 635.941 342.189 638.612 343.063 640.217C343.938 641.822 344.124 642.279 344.371 643.05" stroke="black" stroke-linecap="round"/>
<path d="M331.46 647.152C331.46 647.141 331.401 646.934 330.495 645.108C329.681 643.467 328.012 640.444 327.137 638.792C326.194 636.967 326 636.205 325.754 635.154C325.634 634.688 325.523 634.358 325.373 633.947" stroke="black" stroke-linecap="round"/>
<path d="M318.914 653.251C318.92 653.251 318.925 653.251 320.246 652.928C321.567 652.606 324.205 651.96 326.401 651.228C328.597 650.496 330.271 649.698 332.159 648.824" stroke="black" stroke-linecap="round"/>
<path d="M332.352 648.468C332.426 648.432 333.099 648.054 335.556 646.914C337.356 646.079 340.376 644.941 341.995 644.291C343.768 643.568 344.081 643.431 344.387 643.321C344.538 643.273 344.677 643.243 344.845 643.212" stroke="black" stroke-linecap="round"/>
</g>
<g opacity="0.27">
<path d="M321.943 672.226C321.925 672.271 321.208 673.892 318.449 678.831C316.397 682.171 313.022 687.205 311.018 690.331C309.015 693.457 308.486 694.523 307.905 695.607" stroke="black" stroke-linecap="round"/>
<path d="M307.757 695.545C308.196 695.237 310.507 694.47 314.222 694.649C321.441 694.996 324.094 697.757 325.395 699.061C326.035 699.875 326.49 700.634 326.771 701.468C326.913 701.975 327.054 702.655 327.17 703.74" stroke="black" stroke-linecap="round"/>
<path d="M327.109 703.889C327.62 703.744 333.085 703.636 338.268 704.441C343.14 705.199 344.687 708.194 345.923 709.842C346.189 710.387 346.474 711.172 346.652 711.789C346.829 712.405 346.89 712.829 346.953 713.265" stroke="black" stroke-linecap="round"/>
<path d="M347.04 713.475C347.058 713.43 348.154 711.035 350.369 706.588C352.332 702.645 354.164 700.404 355.36 697.857C357.494 692.84 358.903 689.309 359.086 688.604C359.198 688.213 359.35 687.756 359.573 686.693" stroke="black" stroke-linecap="round"/>
<path d="M321.734 672.179C322.016 671.967 324.558 671.091 328.547 670.696C332.084 670.346 335.577 672.505 337.684 674.048C340.121 677.56 340.658 678.998 340.867 680.311C340.865 680.634 340.822 680.951 340.778 681.277" stroke="black" stroke-linecap="round"/>
<path d="M340.778 681.277C341.25 681.002 342.947 680.291 345.496 680.03C348.251 679.748 353.026 682.119 355.429 683.528C356.776 684.863 357.529 685.941 358.081 686.753C358.345 687.114 358.577 687.373 358.979 687.833" stroke="black" stroke-linecap="round"/>
<path d="M341.371 681.202C340.98 682.062 339.459 684.66 335.552 689.594C332.802 694.031 330.039 699.229 328.297 702.675C327.619 703.975 327.36 704.364 326.585 705.426" stroke="black" stroke-linecap="round"/>
<path d="M308.388 696.582C308.418 696.595 308.447 696.607 311.481 697.875C314.515 699.142 320.553 701.665 323.913 703.104C327.273 704.543 327.774 704.821 328.597 705.543" stroke="black" stroke-linecap="round"/>
<path d="M327.883 705.6C327.917 705.614 327.951 705.628 331.604 707.187C335.258 708.747 342.531 711.852 350.326 715.392" stroke="black" stroke-linecap="round"/>
<path d="M349.965 715.232C351.307 712.006 355.053 703.247 356.362 700.75C357.638 698.063 359.849 693.006 360.816 690.423C361.093 689.451 360.935 689.167 360.3 688.678" stroke="black" stroke-linecap="round"/>
<path d="M348.63 714.298C348.635 714.287 349.717 711.837 351.398 708.055C352.065 706.555 352.692 705.162 353.81 702.732C355.869 699.079 356.299 698.254 357.11 696.633C357.695 695.352 358.628 693.143 359.617 690.595" stroke="black" stroke-linecap="round"/>
</g>
<g opacity="0.27">
<path d="M317 62.2535C317 62.2866 317 62.5678 317.411 65.4547C317.821 68.0773 318.642 73.0504 319.088 75.9053C319.534 78.7602 319.58 79.3462 319.686 80.1102" stroke="black" stroke-linecap="round"/>
<path d="M317.305 62.2799C317.864 61.9077 321.632 60.1709 324.474 59.4637C328.106 59.4518 329.202 59.7563 330.128 60.3498C330.372 60.5462 330.652 60.787 330.941 61.0351" stroke="black" stroke-linecap="round"/>
<path d="M330.941 61.0351C330.948 60.497 331.055 59.1035 331.485 58.0633C331.912 57.0334 334.821 56.4667 338.051 56.0163C339.085 55.9851 340.568 55.9875 341.536 56.1253C342.505 56.2631 342.913 56.5364 343.448 57.0296" stroke="black" stroke-linecap="round"/>
<path d="M319.792 81.2479C319.792 81.2072 319.838 80.9351 320.049 80.3987C320.613 78.9615 325.637 77.3005 329.411 76.2594C332.723 76.3906 333.944 77.1064 334.329 77.4538C334.503 77.6405 334.634 77.8485 334.769 78.0627" stroke="black" stroke-linecap="round"/>
<path d="M334.769 78.0627C334.769 77.8026 334.977 76.455 335.991 74.3318C336.58 73.097 339.439 72.76 343.579 72.526C344.636 72.6143 345.615 72.9867 346.793 73.5371C347.299 73.7917 347.621 73.996 348.535 74.5159" stroke="black" stroke-linecap="round"/>
<path d="M344.003 56.9971C343.987 57.3619 344.735 60.1913 345.914 63.1514C346.765 65.4482 348.128 70.8106 348.893 73.6711C348.993 73.9854 349.063 74.2131 349.226 74.5998" stroke="black" stroke-linecap="round"/>
<path d="M335.47 78.8822C335.514 78.8822 338.016 77.8391 341.992 76.2162C343.49 75.6363 343.934 75.5512 344.79 75.4749C345.646 75.3987 346.9 75.3339 348.193 75.2671" stroke="black" stroke-linecap="round"/>
<path d="M320.17 82.1262C320.24 82.1262 321.765 82.0982 325.543 81.658C327.832 81.2458 330.874 80.4503 332.671 79.9647C334.468 79.4791 334.928 79.3274 335.733 79.0549" stroke="black" stroke-linecap="round"/>
<path d="M334.442 76.3986C334.432 76.0244 334.294 74.5298 334.018 73.2949C333.376 70.4218 332.653 68.9365 332.254 68.0237C331.606 66.5378 331.635 65.4315 331.441 64.5963C331.278 64.0865 331.08 63.3116 330.884 62.4549C330.791 62.0834 330.712 61.84 330.53 61.2667" stroke="black" stroke-linecap="round"/>
</g>
<g opacity="0.27">
<path d="M22.1052 673.982C22.0915 674.029 21.5563 675.719 19.3538 680.929C17.6794 684.474 14.8747 689.846 13.2253 693.173C11.5759 696.499 11.1667 697.617 10.7074 698.757" stroke="black" stroke-linecap="round"/>
<path d="M10.5532 698.712C10.9568 698.357 13.1701 697.343 16.8821 697.114C24.0957 696.67 27.0347 699.124 28.4701 700.279C29.1958 701.017 29.7304 701.722 30.1013 702.52C30.2982 703.009 30.5126 703.669 30.7466 704.736" stroke="black" stroke-linecap="round"/>
<path d="M30.7015 704.89C31.1942 704.69 36.6146 703.985 41.8544 704.219C46.78 704.439 48.645 707.247 50.0542 708.751C50.3778 709.263 50.7474 710.012 50.9912 710.606C51.2351 711.199 51.342 711.613 51.4522 712.04" stroke="black" stroke-linecap="round"/>
<path d="M51.5612 712.24C51.5749 712.193 52.4024 709.692 54.1171 705.03C55.6375 700.896 57.2138 698.468 58.1238 695.806C59.6964 690.585 60.7108 686.922 60.8156 686.2C60.8847 685.799 60.9859 685.328 61.0916 684.248" stroke="black" stroke-linecap="round"/>
<path d="M21.8917 673.958C22.1493 673.716 24.58 672.568 28.5017 671.739C31.9797 671.004 35.6876 672.769 37.9505 674.072C40.7573 677.296 41.4478 678.667 41.7996 679.949C41.833 680.271 41.825 680.59 41.8168 680.92" stroke="black" stroke-linecap="round"/>
<path d="M41.8168 680.92C42.2553 680.594 43.8651 679.702 46.3695 679.164C49.0777 678.582 54.083 680.417 56.6261 681.555C58.1108 682.734 58.9767 683.724 59.6146 684.47C59.9169 684.8 60.1759 685.033 60.625 685.446" stroke="black" stroke-linecap="round"/>
<path d="M42.398 680.78C42.1036 681.678 40.8757 684.426 37.531 689.757C35.2828 694.469 33.1046 699.937 31.7502 703.553C31.2187 704.92 31.0032 705.335 30.3487 706.475" stroke="black" stroke-linecap="round"/>
<path d="M11.2946 699.674C11.3251 699.683 11.3557 699.692 14.51 700.621C17.6644 701.549 23.9417 703.397 27.4393 704.459C30.937 705.522 31.4647 705.744 32.3619 706.372" stroke="black" stroke-linecap="round"/>
<path d="M31.6586 706.506C31.6936 706.516 31.7286 706.526 35.5311 707.677C39.3336 708.828 46.9026 711.119 55.0373 713.786" stroke="black" stroke-linecap="round"/>
<path d="M54.6608 713.666C55.6423 710.313 58.4082 701.196 59.4363 698.571C60.4113 695.761 62.0553 690.493 62.7348 687.82C62.9036 686.823 62.7152 686.558 62.0307 686.141" stroke="black" stroke-linecap="round"/>
<path d="M53.2321 712.884C53.2354 712.873 54.0438 710.319 55.3009 706.376C55.7997 704.811 56.2708 703.359 57.1161 700.821C58.7633 696.964 59.1007 696.098 59.7301 694.397C60.1708 693.061 60.8575 690.763 61.5619 688.122" stroke="black" stroke-linecap="round"/>
</g>
</svg>
