<svg width="345" height="805" viewBox="0 0 345 805" fill="none" xmlns="http://www.w3.org/2000/svg">
<g opacity="0.27">
<path d="M25.2092 5.71204C25.201 5.73674 25.113 5.93119 23.9577 7.16384C22.9404 8.24927 20.8299 10.1294 18.2789 13.0456C15.7279 15.9618 12.7446 19.8215 11.1644 21.8553C9.58419 23.8891 9.49747 23.9801 9.28915 24.1848" stroke="black" stroke-linecap="round"/>
<path d="M9.11108 24.6999C9.11232 24.6962 9.11356 24.6924 10.9654 25.1317C12.8173 25.571 16.5197 26.4536 18.9925 27.1041C22.6165 28.0574 24.3471 28.8576 25.3224 29.3878C26.3433 30.1178 27.5471 31.4801 28.5709 32.8637C28.9468 33.3869 29.0314 33.5466 29.2533 33.9333" stroke="black" stroke-linecap="round"/>
<path d="M29.565 34.5502C29.5696 34.5492 30.8396 34.4627 33.6036 34.4277C35.0835 34.409 36.7864 34.6694 38.4422 34.9964C41.6901 35.6378 43.4638 36.3195 44.154 36.6526C45.5711 37.3366 47.3356 38.528 49.062 39.9049C51.4627 42.1916 51.9834 42.7464 52.5108 43.4315C52.7631 43.7859 52.9842 44.1538 53.2592 44.5857" stroke="black" stroke-linecap="round"/>
<path d="M25.1901 5.25415C25.2417 5.2673 27.1047 5.33136 30.4972 5.49367C32.0486 5.56789 33.2739 5.74973 34.6388 6.06066C37.4987 6.71218 39.1939 7.41257 39.9032 7.8401C42.7214 9.53893 43.6669 10.8935 43.9966 11.3776C44.063 11.4997 44.126 11.6368 44.254 11.8789C44.3821 12.1209 44.5734 12.4637 44.8593 13.1329" stroke="black" stroke-linecap="round"/>
<path d="M44.8593 13.1328C44.8995 13.1461 46.7179 13.1555 49.698 13.1902C51.3784 13.2098 52.381 13.4524 53.6984 13.8156C55.8191 14.4002 57.2172 14.9605 58.367 15.5318C61.2729 16.9758 63.4564 18.1939 64.3141 18.9039C65.7746 20.2673 66.8332 21.3233 67.1076 21.6809C67.2287 21.8517 67.3133 22.0008 67.4339 22.3619" stroke="black" stroke-linecap="round"/>
<path d="M67.5341 22.6051C66.9198 23.2836 65.3988 25.0838 64.6405 26.7353C64.1227 27.863 63.5727 29.6691 63.1845 30.6979C62.7054 31.9677 62.2058 33.0472 61.7256 34.4523C61.4847 35.1569 60.9305 36.5768 60.1679 38.7698C59.3699 41.0642 58.8195 41.648 57.6057 43.2161C55.2173 46.3015 55.1996 46.9555 54.7995 47.0951C54.4346 46.5862 54.2009 46.0802 54.0508 45.6554C53.9818 45.4748 53.9276 45.3651 53.8117 45.1477" stroke="black" stroke-linecap="round"/>
<path d="M30.1796 35.2754C30.1946 35.2804 30.2097 35.2853 31.5842 35.758C32.9587 36.2307 35.6923 37.1709 38.422 38.3485C41.1516 39.5262 43.7945 40.9128 46.1556 42.239C48.5166 43.5653 50.5157 44.7891 51.7726 45.5204C53.0295 46.2517 53.4836 46.4533 54.171 46.7876" stroke="black" stroke-linecap="round"/>
<path d="M29.4307 35.2382C29.3874 35.2239 29.3442 35.2097 27.0025 34.2792C24.6609 33.3488 20.0223 31.5026 17.5498 30.5004C15.0773 29.4982 14.9115 29.3958 13.8925 28.7505C12.8735 28.1052 11.0062 26.9201 9.97604 26.2798C8.9459 25.6395 8.80948 25.5799 8.40405 25.3604" stroke="black" stroke-linecap="round"/>
<path d="M44.691 13.2043C44.6888 13.2111 44.6068 13.4599 44.0438 14.5362C43.6003 15.3843 42.6811 16.7768 41.8475 17.9161C41.0139 19.0555 40.2541 19.882 39.2232 21.3429C38.1923 22.8038 36.9133 24.874 36.1113 26.1862C35.3093 27.4984 35.0231 27.9899 34.4439 28.8258C33.8647 29.6618 33.0012 30.8275 32.3692 31.7692C31.7371 32.7108 31.3627 33.3931 31.1272 33.8037C30.8916 34.2144 30.8062 34.3327 30.4803 34.5976" stroke="black" stroke-linecap="round"/>
</g>
<g opacity="0.27">
<path d="M64.7186 676.193C64.7104 676.217 64.6224 676.412 63.4671 677.644C62.4498 678.73 60.3393 680.61 57.7883 683.526C55.2373 686.442 52.254 690.302 50.6738 692.336C49.0936 694.37 49.0069 694.461 48.7986 694.665" stroke="black" stroke-linecap="round"/>
<path d="M48.6205 695.18C48.6217 695.177 48.623 695.173 50.4748 695.612C52.3267 696.052 56.0291 696.934 58.5019 697.585C62.1259 698.538 63.8565 699.338 64.8318 699.868C65.8527 700.598 67.0565 701.961 68.0803 703.344C68.4562 703.867 68.5408 704.027 68.7627 704.414" stroke="black" stroke-linecap="round"/>
<path d="M69.0744 705.031C69.079 705.03 70.349 704.943 73.113 704.908C74.5929 704.889 76.2958 705.15 77.9516 705.477C81.1995 706.118 82.9732 706.8 83.6634 707.133C85.0805 707.817 86.845 709.009 88.5714 710.385C90.9721 712.672 91.4928 713.227 92.0202 713.912C92.2725 714.266 92.4936 714.634 92.7686 715.066" stroke="black" stroke-linecap="round"/>
<path d="M64.6995 675.735C64.7511 675.748 66.6141 675.812 70.0066 675.974C71.558 676.048 72.7833 676.23 74.1482 676.541C77.0081 677.193 78.7033 677.893 79.4126 678.321C82.2308 680.019 83.1763 681.374 83.506 681.858C83.5724 681.98 83.6354 682.117 83.7634 682.359C83.8915 682.601 84.0828 682.944 84.3687 683.613" stroke="black" stroke-linecap="round"/>
<path d="M84.3687 683.613C84.4089 683.627 86.2273 683.636 89.2074 683.671C90.8878 683.69 91.8904 683.933 93.2078 684.296C95.3285 684.881 96.7266 685.441 97.8764 686.012C100.782 687.456 102.966 688.674 103.823 689.384C105.284 690.748 106.343 691.804 106.617 692.161C106.738 692.332 106.823 692.481 106.943 692.842" stroke="black" stroke-linecap="round"/>
<path d="M107.044 693.086C106.429 693.764 104.908 695.564 104.15 697.216C103.632 698.344 103.082 700.15 102.694 701.178C102.215 702.448 101.715 703.528 101.235 704.933C100.994 705.637 100.44 707.057 99.6773 709.25C98.8793 711.545 98.3289 712.129 97.1151 713.697C94.7267 716.782 94.709 717.436 94.3089 717.576C93.944 717.067 93.7103 716.561 93.5602 716.136C93.4912 715.955 93.437 715.846 93.3211 715.628" stroke="black" stroke-linecap="round"/>
<path d="M69.689 705.756C69.704 705.761 69.7191 705.766 71.0936 706.238C72.4681 706.711 75.2017 707.651 77.9314 708.829C80.661 710.007 83.3039 711.393 85.665 712.72C88.026 714.046 90.0251 715.27 91.282 716.001C92.5389 716.732 92.993 716.934 93.6804 717.268" stroke="black" stroke-linecap="round"/>
<path d="M68.9401 705.719C68.8968 705.704 68.8536 705.69 66.5119 704.76C64.1703 703.829 59.5317 701.983 57.0592 700.981C54.5867 699.979 54.4209 699.876 53.4019 699.231C52.3829 698.586 50.5156 697.401 49.4854 696.76C48.4553 696.12 48.3189 696.06 47.9135 695.841" stroke="black" stroke-linecap="round"/>
<path d="M84.2004 683.685C84.1982 683.692 84.1162 683.94 83.5532 685.017C83.1097 685.865 82.1905 687.257 81.3569 688.397C80.5233 689.536 79.7635 690.362 78.7326 691.823C77.7017 693.284 76.4227 695.355 75.6207 696.667C74.8187 697.979 74.5325 698.47 73.9533 699.306C73.3741 700.142 72.5106 701.308 71.8786 702.25C71.2465 703.191 70.8721 703.874 70.6366 704.284C70.401 704.695 70.3156 704.813 69.9897 705.078" stroke="black" stroke-linecap="round"/>
</g>
<g opacity="0.27">
<path d="M6.02484 136.709C6.03733 136.763 6.76737 139.984 8.00734 147.64C8.5237 152.101 8.8109 157.734 9.51635 163.111C10.2218 168.487 11.3368 173.437 12.4855 178.536" stroke="black" stroke-linecap="round"/>
<path d="M12.53 178.727C13.5545 177.727 20.3193 172.576 24.6373 170.03C28.1434 167.963 34.7095 167.703 37.8097 168.277C39.1235 168.632 41.1037 169.226 42.3345 169.634C43.5653 170.043 43.9866 170.249 44.7559 170.674" stroke="black" stroke-linecap="round"/>
<path d="M44.8004 170.865C44.8926 170.175 46.0829 167.317 48.4946 163.981C50.144 161.699 53.1196 159.852 56.0951 158.2C58.5489 156.838 62.3124 155.778 67.2163 154.893C71.716 154.893 74.4762 155.286 75.758 155.821C76.4737 156.195 77.3219 156.776 78.4414 157.613" stroke="black" stroke-linecap="round"/>
<path d="M78.4414 157.613C78.0862 156.092 75.9332 148.797 72.4621 139.814C68.7441 130.193 65.284 125.309 64.6626 123.902C64.1849 122.884 63.3779 121.247 62.6562 120.009C61.9346 118.771 61.3227 117.983 60.0082 116.586" stroke="black" stroke-linecap="round"/>
<path d="M5.71335 137.504C5.85424 137.426 9.61542 135.299 16.2073 131.726C24.5504 127.203 29.8329 127.335 32.0095 127.95C33.4981 128.371 34.6455 129.83 35.7433 130.573C38.8661 132.686 41.9974 123.283 43.1889 121.736C45.0912 119.267 50.332 117.574 54.5125 116.669C55.7733 116.611 57.2847 116.732 58.2431 116.887C59.2015 117.041 59.5612 117.227 60.3123 117.881" stroke="black" stroke-linecap="round"/>
<path d="M36.6865 131.019C36.6898 131.033 36.6931 131.048 37.8029 135.631C38.9126 140.214 41.1287 149.366 42.3767 154.376C43.8372 159.977 44.2776 161.228 44.9155 163.498C45.332 165.124 45.937 167.714 46.4731 170.402" stroke="black" stroke-linecap="round"/>
<path d="M46.473 170.402C46.5533 170.384 49.1683 169.31 56.518 166.129C61.294 164.012 68.1945 160.874 72.1246 159.17C76.0546 157.465 76.8051 157.29 77.5784 157.11" stroke="black" stroke-linecap="round"/>
<path d="M46.8549 170.36C46.8276 170.366 46.8004 170.372 42.7782 171.336C38.7559 172.299 30.7394 174.219 26.235 175.372C19.8042 177.375 17.1809 178.324 14.2663 179.246C13.1527 179.599 12.7812 179.72 11.838 180.074" stroke="black" stroke-linecap="round"/>
</g>
<g opacity="0.25">
<path d="M6.02484 136.709C6.03733 136.763 6.76737 139.984 8.00734 147.64C8.5237 152.101 8.8109 157.734 9.51635 163.111C10.2218 168.487 11.3368 173.437 12.4855 178.536" stroke="black" stroke-linecap="round"/>
<path d="M12.53 178.727C13.5545 177.727 20.3193 172.576 24.6373 170.03C28.1434 167.963 34.7095 167.703 37.8097 168.277C39.1235 168.632 41.1037 169.226 42.3345 169.634C43.5653 170.043 43.9866 170.249 44.7559 170.674" stroke="black" stroke-linecap="round"/>
<path d="M44.8004 170.865C44.8926 170.175 46.0829 167.317 48.4946 163.981C50.144 161.699 53.1196 159.852 56.0951 158.2C58.5489 156.838 62.3124 155.778 67.2163 154.893C71.716 154.893 74.4762 155.286 75.758 155.821C76.4737 156.195 77.3219 156.776 78.4414 157.613" stroke="black" stroke-linecap="round"/>
<path d="M78.4414 157.613C78.0862 156.092 75.9332 148.797 72.4621 139.814C68.7441 130.193 65.284 125.309 64.6626 123.902C64.1849 122.884 63.3779 121.247 62.6562 120.009C61.9346 118.771 61.3227 117.983 60.0082 116.586" stroke="black" stroke-linecap="round"/>
<path d="M5.71335 137.504C5.85424 137.426 9.61542 135.299 16.2073 131.726C24.5504 127.203 29.8329 127.335 32.0095 127.95C33.4981 128.371 34.6455 129.83 35.7433 130.573C38.8661 132.686 41.9974 123.283 43.1889 121.736C45.0912 119.267 50.332 117.574 54.5125 116.669C55.7733 116.611 57.2847 116.732 58.2431 116.887C59.2015 117.041 59.5612 117.227 60.3123 117.881" stroke="black" stroke-linecap="round"/>
<path d="M36.6865 131.019C36.6898 131.033 36.6931 131.048 37.8029 135.631C38.9126 140.214 41.1287 149.366 42.3767 154.376C43.8372 159.977 44.2776 161.228 44.9155 163.498C45.332 165.124 45.937 167.714 46.4731 170.402" stroke="black" stroke-linecap="round"/>
<path d="M46.473 170.402C46.5533 170.384 49.1683 169.31 56.518 166.129C61.294 164.012 68.1945 160.874 72.1246 159.17C76.0546 157.465 76.8051 157.29 77.5784 157.11" stroke="black" stroke-linecap="round"/>
<path d="M46.8549 170.36C46.8276 170.366 46.8004 170.372 42.7782 171.336C38.7559 172.299 30.7394 174.219 26.235 175.372C19.8042 177.375 17.1809 178.324 14.2663 179.246C13.1527 179.599 12.7812 179.72 11.838 180.074" stroke="black" stroke-linecap="round"/>
</g>
<g opacity="0.27">
<path d="M273.265 637.079C273.275 637.124 273.89 639.817 275.025 646.197C275.551 649.907 275.976 654.575 276.665 659.049C277.354 663.522 278.294 667.66 279.262 671.924" stroke="black" stroke-linecap="round"/>
<path d="M279.299 672.083C279.93 671.299 284.159 667.325 286.89 665.401C289.107 663.84 293.41 663.899 295.471 664.504C296.349 664.852 297.675 665.426 298.501 665.816C299.327 666.205 299.612 666.393 300.135 666.776" stroke="black" stroke-linecap="round"/>
<path d="M300.173 666.936C300.204 666.37 300.867 664.057 302.312 661.401C303.3 659.584 305.177 658.182 307.063 656.941C308.618 655.918 311.047 655.199 314.232 654.673C317.188 654.861 319.018 655.302 319.883 655.798C320.369 656.137 320.95 656.653 321.721 657.391" stroke="black" stroke-linecap="round"/>
<path d="M321.721 657.391C321.424 656.119 319.704 649.999 317.047 642.429C314.201 634.321 311.723 630.138 311.256 628.95C310.899 628.088 310.3 626.701 309.774 625.647C309.248 624.594 308.813 623.917 307.891 622.707" stroke="black" stroke-linecap="round"/>
<path d="M273.094 637.723C273.183 637.664 275.565 636.064 279.746 633.386C285.039 629.998 288.515 630.328 289.971 630.928C290.967 631.338 291.782 632.592 292.534 633.252C294.674 635.129 296.338 627.488 297.056 626.26C298.202 624.299 301.575 623.118 304.284 622.545C305.11 622.551 306.108 622.714 306.744 622.882C307.38 623.05 307.624 623.218 308.145 623.79" stroke="black" stroke-linecap="round"/>
<path d="M293.172 633.661C293.175 633.672 293.178 633.684 294.099 637.519C295.02 641.354 296.86 649.012 297.89 653.205C299.084 657.896 299.426 658.949 299.94 660.851C300.282 662.213 300.788 664.379 301.252 666.624" stroke="black" stroke-linecap="round"/>
<path d="M301.252 666.624C301.304 666.612 302.977 665.834 307.673 663.512C310.723 661.963 315.125 659.658 317.636 658.414C320.147 657.17 320.632 657.056 321.133 656.939" stroke="black" stroke-linecap="round"/>
<path d="M301.501 666.605C301.484 666.609 301.466 666.613 298.864 667.241C296.261 667.868 291.075 669.12 288.163 669.884C284.022 671.27 282.338 671.945 280.462 672.585C279.745 672.83 279.506 672.915 278.901 673.168" stroke="black" stroke-linecap="round"/>
</g>
<g opacity="0.27">
<path d="M278.788 738.939C278.767 738.989 277.464 742.025 273.967 748.947C271.762 752.86 268.683 757.585 266.093 762.35C263.504 767.114 261.496 771.773 259.428 776.574" stroke="black" stroke-linecap="round"/>
<path d="M259.352 776.754C260.769 776.548 269.269 776.357 274.259 776.836C278.31 777.224 283.775 780.874 285.946 783.16C286.8 784.22 288.053 785.864 288.808 786.919C289.563 787.973 289.783 788.387 290.156 789.183" stroke="black" stroke-linecap="round"/>
<path d="M290.08 789.363C290.56 788.86 293.203 787.247 297.115 785.966C299.79 785.09 303.283 785.344 306.662 785.757C309.447 786.098 313.115 787.452 317.602 789.619C321.243 792.264 323.245 794.205 323.967 795.391C324.326 796.114 324.671 797.083 325.085 798.418" stroke="black" stroke-linecap="round"/>
<path d="M325.085 798.417C325.691 796.978 328.238 789.811 330.71 780.504C333.358 770.535 333.43 764.55 333.754 763.047C333.966 761.942 334.275 760.143 334.419 758.718C334.563 757.292 334.532 756.295 334.289 754.392" stroke="black" stroke-linecap="round"/>
<path d="M278.069 739.399C278.229 739.418 282.522 739.908 289.955 740.892C299.363 742.138 303.559 745.35 304.958 747.127C305.915 748.343 305.986 750.197 306.437 751.443C307.721 754.989 315.782 749.223 317.655 748.672C320.645 747.793 325.88 749.503 329.794 751.229C330.848 751.923 332 752.909 332.684 753.598C333.369 754.286 333.551 754.648 333.774 755.618" stroke="black" stroke-linecap="round"/>
<path d="M306.938 752.359C306.932 752.373 306.927 752.386 305.13 756.746C303.334 761.106 299.747 769.813 297.811 774.6C295.701 779.989 295.321 781.26 294.504 783.471C293.885 785.031 292.852 787.482 291.705 789.972" stroke="black" stroke-linecap="round"/>
<path d="M291.705 789.973C291.781 790.005 294.527 790.673 302.343 792.42C307.451 793.515 314.878 795.033 319.059 795.964C323.24 796.896 323.951 797.195 324.682 797.503" stroke="black" stroke-linecap="round"/>
<path d="M292.039 790.162C292.013 790.152 291.987 790.141 288.167 788.556C284.347 786.971 276.733 783.812 272.411 782.096C266.031 779.936 263.351 779.162 260.451 778.195C259.343 777.826 258.971 777.706 258 777.438" stroke="black" stroke-linecap="round"/>
</g>
<g opacity="0.27">
<path d="M295.105 23.4623C295.092 23.5091 294.556 25.1992 292.354 30.4097C290.679 33.9541 287.875 39.3266 286.225 42.6531C284.576 45.9795 284.167 47.0972 283.707 48.2376" stroke="black" stroke-linecap="round"/>
<path d="M283.553 48.1925C283.957 47.8379 286.17 46.8235 289.882 46.5949C297.096 46.1504 300.035 48.6047 301.47 49.7594C302.196 50.4979 302.73 51.203 303.101 52.0008C303.298 52.4898 303.513 53.1497 303.747 54.2162" stroke="black" stroke-linecap="round"/>
<path d="M303.701 54.3705C304.194 54.1709 309.615 53.4658 314.854 53.6997C319.78 53.9196 321.645 56.7278 323.054 58.2312C323.378 58.7434 323.747 59.4929 323.991 60.0862C324.235 60.6795 324.342 61.0939 324.452 61.5208" stroke="black" stroke-linecap="round"/>
<path d="M324.561 61.7202C324.575 61.6735 325.402 59.1724 327.117 54.5103C328.638 50.3767 330.214 47.9485 331.124 45.2863C332.696 40.0659 333.711 36.4021 333.816 35.6805C333.885 35.2798 333.986 34.8089 334.092 33.7284" stroke="black" stroke-linecap="round"/>
<path d="M294.892 23.4389C295.149 23.1966 297.58 22.0483 301.502 21.2194C304.98 20.4843 308.688 22.2493 310.951 23.5521C313.757 26.7767 314.448 28.1477 314.8 29.4299C314.833 29.7511 314.825 30.0708 314.817 30.4001" stroke="black" stroke-linecap="round"/>
<path d="M314.817 30.4001C315.255 30.0749 316.865 29.1823 319.37 28.6442C322.078 28.0624 327.083 29.8971 329.626 31.0353C331.111 32.2147 331.977 33.2042 332.615 33.9505C332.917 34.2808 333.176 34.5131 333.625 34.9267" stroke="black" stroke-linecap="round"/>
<path d="M315.398 30.2601C315.104 31.1582 313.876 33.907 310.531 39.238C308.283 43.9491 306.105 49.4178 304.75 53.0338C304.219 54.4003 304.003 54.8157 303.349 55.9555" stroke="black" stroke-linecap="round"/>
<path d="M284.295 49.1548C284.325 49.1637 284.356 49.1726 287.51 50.1011C290.664 51.0295 296.942 52.8771 300.439 53.9399C303.937 55.0026 304.465 55.2245 305.362 55.8522" stroke="black" stroke-linecap="round"/>
<path d="M304.659 55.9864C304.694 55.9967 304.729 56.0069 308.531 57.1578C312.334 58.3086 319.903 60.5998 328.037 63.2664" stroke="black" stroke-linecap="round"/>
<path d="M327.661 63.1463C328.642 59.7935 331.408 50.6769 332.436 48.0518C333.411 45.2418 335.055 39.9731 335.735 37.3001C335.904 36.3038 335.715 36.0386 335.031 35.6218" stroke="black" stroke-linecap="round"/>
<path d="M326.232 62.3644C326.235 62.3531 327.044 59.7991 328.301 55.8564C328.8 54.2918 329.271 52.8393 330.116 50.3012C331.763 46.4448 332.101 45.5781 332.73 43.8776C333.171 42.5411 333.858 40.2431 334.562 37.6021" stroke="black" stroke-linecap="round"/>
</g>
<g opacity="0.27">
<path d="M10.2011 564.988C10.2276 565.029 11.1567 566.539 13.6601 571.612C15.2479 575.196 17.4802 580.831 18.9194 584.253C20.3585 587.676 20.9368 588.716 21.4996 589.809" stroke="black" stroke-linecap="round"/>
<path d="M21.3647 589.896C21.3601 589.359 22.0393 587.021 24.2928 584.063C28.6719 578.313 32.4504 577.693 34.2626 577.362C35.2957 577.295 36.1788 577.352 37.025 577.593C37.5238 577.763 38.1633 578.032 39.1234 578.552" stroke="black" stroke-linecap="round"/>
<path d="M39.2107 578.687C39.3817 578.184 42.3914 573.621 45.9936 569.809C49.3798 566.225 52.7241 566.649 54.7829 566.566C55.3821 566.656 56.1909 566.866 56.7993 567.069C57.4077 567.272 57.7912 567.462 58.1863 567.658" stroke="black" stroke-linecap="round"/>
<path d="M58.4084 567.706C58.382 567.665 57.0302 565.404 54.623 561.059C52.4887 557.206 51.6815 554.426 50.2617 551.997C47.3391 547.394 45.2296 544.232 44.752 543.681C44.4939 543.367 44.2037 542.982 43.4551 542.196" stroke="black" stroke-linecap="round"/>
<path d="M10.0439 565.135C10.029 564.781 10.7489 562.191 12.6851 558.682C14.4024 555.569 18.1619 553.917 20.6271 553.056C24.9021 553.04 26.3909 553.413 27.5912 553.985C27.8561 554.17 28.0928 554.385 28.3367 554.607" stroke="black" stroke-linecap="round"/>
<path d="M28.3367 554.607C28.3772 554.062 28.754 552.26 29.984 550.013C31.3139 547.584 35.9743 544.995 38.498 543.815C40.3611 543.462 41.6759 543.454 42.6577 543.459C43.1053 543.446 43.4504 543.402 44.057 543.332" stroke="black" stroke-linecap="round"/>
<path d="M28.6107 554.075C29.0978 554.885 30.3754 557.611 32.2233 563.627C34.3189 568.408 37.0335 573.631 38.8847 577.02C39.5713 578.316 39.7448 578.75 40.1795 579.99" stroke="black" stroke-linecap="round"/>
<path d="M22.5775 589.964C22.6043 589.947 22.631 589.93 25.3956 588.15C28.1601 586.369 33.6617 582.827 36.7524 580.875C39.843 578.922 40.3559 578.668 41.4173 578.4" stroke="black" stroke-linecap="round"/>
<path d="M41.0592 579.019C41.0898 579 41.1205 578.98 44.4771 576.855C47.8336 574.729 54.5152 570.499 61.8508 566.086" stroke="black" stroke-linecap="round"/>
<path d="M61.5138 566.293C59.6182 563.358 54.5271 555.306 53.2125 552.812C51.7234 550.237 48.8108 545.549 47.2322 543.287C46.5886 542.508 46.2648 542.477 45.5019 542.723" stroke="black" stroke-linecap="round"/>
<path d="M59.9882 566.863C59.9818 566.853 58.5774 564.571 56.4155 561.043C55.5576 559.643 54.7663 558.337 53.3981 556.038C51.5565 552.27 51.1211 551.448 50.2457 549.861C49.5224 548.653 48.2322 546.632 46.694 544.372" stroke="black" stroke-linecap="round"/>
</g>
<g opacity="0.27">
<path d="M300.049 147.423C300.049 147.534 300.086 148.678 300.374 151.53C300.8 155.743 302.215 160.495 303.271 164.164C303.948 166.513 304.315 167.353 304.518 167.581C305.663 168.871 307.167 164.249 309.805 162.862C312.868 161.252 318.175 161.672 321.582 162.09C322.138 162.214 322.384 162.31 322.68 162.487C322.976 162.665 323.316 162.922 323.953 163.514" stroke="black" stroke-linecap="round"/>
<path d="M323.953 163.514C323.974 163.165 324.537 161.707 325.865 160.079C328.097 158.212 332.235 156.913 336.992 156.142C338.076 156.074 339.3 156.046 340.861 156.221" stroke="black" stroke-linecap="round"/>
<path d="M300 146.854C301.279 146.111 305.404 144.086 309.011 143.444C312.748 143.67 315.983 144.45 316.675 144.772C316.994 144.928 317.249 145.069 317.794 145.389" stroke="black" stroke-linecap="round"/>
<path d="M317.794 145.389C317.808 145.031 318.127 143.932 319.278 142.648C320.955 140.776 323.565 140.144 326.618 139.283C327.734 138.918 328.608 138.673 329.983 138.576C330.974 138.543 332.56 138.543 334.195 138.543" stroke="black" stroke-linecap="round"/>
<path d="M334.582 138.48C334.582 138.571 335.589 141.14 337.236 145.179C338.903 148.775 340.573 152.453 341.519 154.5C341.871 155.295 341.963 155.598 342.223 156.582" stroke="black" stroke-linecap="round"/>
<path d="M323.927 163.255C322.845 160.472 319.808 153.365 318.615 150.87C318.072 149.471 317.666 148.193 317.524 146.775C317.501 146.355 317.478 145.893 317.34 145.178" stroke="black" stroke-linecap="round"/>
<path d="M322.567 165.445C322.523 165.445 319.752 165.445 315.015 165.551C311.879 165.87 309.281 166.667 306.88 167.763C305.894 168.282 305.382 168.724 304.772 169.588" stroke="black" stroke-linecap="round"/>
<path d="M326.354 163.22C326.734 163.22 328.319 163.217 330.916 163.125C332.123 163.037 333.103 162.865 335.083 162.23C337.062 161.596 340.01 160.504 343.922 159.155" stroke="black" stroke-linecap="round"/>
</g>
<g opacity="0.27">
<path d="M24.0499 757.436C24.0499 757.571 24.0883 758.973 24.3833 762.466C24.819 767.627 26.2688 773.449 27.3516 777.943C28.0452 780.821 28.4212 781.85 28.6284 782.129C29.8017 783.71 31.3426 778.047 34.046 776.349C37.1842 774.377 42.6208 774.891 46.1117 775.403C46.6817 775.554 46.9334 775.672 47.2369 775.889C47.5403 776.107 47.8878 776.422 48.5407 777.147" stroke="black" stroke-linecap="round"/>
<path d="M48.5406 777.147C48.5622 776.719 49.1398 774.933 50.5004 772.939C52.7864 770.652 57.0268 769.061 61.8999 768.116C63.0106 768.033 64.2646 767.999 65.8637 768.214" stroke="black" stroke-linecap="round"/>
<path d="M24 756.738C25.3102 755.829 29.5371 753.348 33.2325 752.561C37.0614 752.838 40.3755 753.794 41.0844 754.188C41.4116 754.379 41.6724 754.552 42.2306 754.944" stroke="black" stroke-linecap="round"/>
<path d="M42.2306 754.944C42.2447 754.505 42.5721 753.159 43.7508 751.586C45.4696 749.292 48.1431 748.518 51.2716 747.464C52.4146 747.017 53.31 746.716 54.7186 746.597C55.734 746.557 57.3596 746.557 59.0344 746.557" stroke="black" stroke-linecap="round"/>
<path d="M59.4311 746.48C59.4311 746.591 60.4623 749.738 62.1498 754.686C63.8574 759.092 65.5692 763.597 66.5382 766.104C66.8987 767.079 66.9929 767.45 67.2591 768.656" stroke="black" stroke-linecap="round"/>
<path d="M48.5147 776.829C47.4059 773.42 44.2942 764.715 43.072 761.658C42.5158 759.944 42.0996 758.379 41.9537 756.641C41.9304 756.127 41.9073 755.561 41.7655 754.685" stroke="black" stroke-linecap="round"/>
<path d="M47.1211 779.513C47.0761 779.513 44.2371 779.513 39.3833 779.643C36.1705 780.033 33.5093 781.009 31.0488 782.353C30.039 782.988 29.5142 783.529 28.8889 784.588" stroke="black" stroke-linecap="round"/>
<path d="M51.0014 776.787C51.3899 776.787 53.0146 776.783 55.6752 776.671C56.9114 776.563 57.916 776.352 59.9437 775.575C61.9715 774.797 64.9919 773.46 69 771.807" stroke="black" stroke-linecap="round"/>
</g>
</svg>
