<svg width="223" height="151" viewBox="0 0 223 151" fill="none" xmlns="http://www.w3.org/2000/svg">
<g opacity="0.27">
<path d="M24.4893 35.0471C24.4745 34.7713 24.2389 34.558 23.963 34.5705C23.6872 34.583 23.4755 34.8167 23.4904 35.0925L23.9898 35.0698L24.4893 35.0471ZM22.4473 62.6234L22.9432 62.6931L22.9448 62.681L22.9458 62.6689L22.4473 62.6234ZM11.4167 135.239C11.3994 135.514 11.6089 135.753 11.8846 135.773C12.1603 135.792 12.3979 135.585 12.4152 135.31L11.916 135.274L11.4167 135.239ZM23.9898 35.0698L23.4904 35.0925C23.4903 35.092 23.4907 35.0989 23.4912 35.117C23.4917 35.1336 23.4924 35.1569 23.4931 35.1872C23.4944 35.2477 23.496 35.3353 23.4972 35.4518C23.4997 35.6849 23.5008 36.0332 23.4964 36.5122C23.4877 37.4702 23.4572 38.9503 23.3722 41.0767C23.2024 45.3295 22.8148 52.1657 21.9488 62.578L22.4473 62.6234L22.9458 62.6689C24.679 41.8307 24.5009 35.2632 24.4893 35.0471L23.9898 35.0698ZM22.4473 62.6234L21.9514 62.5538C20.0432 76.9391 16.0494 99.0451 13.9309 112.669L14.4252 112.75L14.9195 112.831C17.0304 99.2554 21.0339 77.0866 22.9432 62.6931L22.4473 62.6234ZM14.4252 112.75L13.9309 112.669C11.8128 126.291 11.702 130.7 11.4167 135.239L11.916 135.274L12.4152 135.31C12.6997 130.784 12.8081 126.409 14.9195 112.831L14.4252 112.75Z" fill="black"/>
<path d="M10.7975 135.024C10.6434 135.252 10.7044 135.563 10.9336 135.719C11.1629 135.875 11.4737 135.816 11.6278 135.588L11.2126 135.306L10.7975 135.024ZM35.1776 121.986L35.0067 121.515L35.1776 121.986ZM87.7012 118.793L87.8896 118.332L87.8654 118.322L87.8404 118.315L87.7012 118.793ZM97.6439 124.595L97.9903 124.237L97.9807 124.228L97.9706 124.219L97.6439 124.595ZM103.059 131.805C103.222 132.03 103.535 132.081 103.758 131.921C103.981 131.76 104.031 131.448 103.868 131.223L103.464 131.514L103.059 131.805ZM11.2126 135.306L11.6278 135.588C11.8769 135.22 12.5308 134.544 13.6496 133.637C14.7556 132.74 16.285 131.642 18.251 130.429C22.1825 128.002 27.8495 125.12 35.3485 122.457L35.1776 121.986L35.0067 121.515C27.4443 124.2 21.7136 127.113 17.7202 129.577C15.7239 130.809 14.1591 131.931 13.0154 132.858C11.8844 133.775 11.1331 134.528 10.7975 135.024L11.2126 135.306ZM35.1776 121.986L35.3485 122.457C49.9317 117.28 61.1046 115.929 69.5606 116.146C78.0144 116.362 83.7749 118.145 87.562 119.272L87.7012 118.793L87.8404 118.315C84.0386 117.183 78.1716 115.366 69.578 115.146C60.9867 114.926 49.6922 116.302 35.0067 121.515L35.1776 121.986ZM87.7012 118.793L87.5129 119.255C91.5395 120.923 94.7029 122.697 97.3173 124.971L97.6439 124.595L97.9706 124.219C95.2452 121.848 91.9747 120.025 87.8896 118.332L87.7012 118.793ZM97.6439 124.595L97.2976 124.952C98.7828 126.389 100.589 128.399 103.059 131.805L103.464 131.514L103.868 131.223C101.37 127.779 99.5254 125.722 97.9903 124.237L97.6439 124.595Z" fill="black"/>
<path d="M103.196 131.704C102.975 131.867 102.929 132.18 103.095 132.402C103.26 132.625 103.573 132.673 103.795 132.509L103.495 132.106L103.196 131.704ZM148.771 116.098L148.644 115.614L148.771 116.098ZM189.191 121.817L189.467 121.403L189.43 121.378L189.389 121.36L189.191 121.817ZM199.263 131.86C199.434 132.077 199.749 132.117 199.966 131.947C200.182 131.778 200.219 131.464 200.048 131.246L199.655 131.553L199.263 131.86ZM103.495 132.106L103.795 132.509C103.97 132.38 104.454 132.115 105.261 131.726C106.052 131.346 107.114 130.865 108.412 130.305C111.008 129.185 114.538 127.754 118.704 126.187C127.035 123.053 137.896 119.382 148.898 116.583L148.771 116.098L148.644 115.614C137.596 118.425 126.699 122.108 118.344 125.251C114.167 126.823 110.622 128.26 108.009 129.387C106.703 129.95 105.628 130.437 104.821 130.825C104.032 131.205 103.46 131.509 103.196 131.704L103.495 132.106ZM148.771 116.098L148.898 116.583C159.179 113.967 167.206 114.519 173.644 116.15C180.107 117.787 184.956 120.5 188.993 122.274L189.191 121.817L189.389 121.36C185.451 119.629 180.454 116.846 173.883 115.181C167.287 113.511 159.091 112.956 148.644 115.614L148.771 116.098ZM189.191 121.817L188.915 122.231C190.954 123.598 193.527 125.734 195.365 127.485L195.708 127.125L196.052 126.764C194.183 124.983 191.565 122.808 189.467 121.403L189.191 121.817ZM195.708 127.125L195.365 127.485C197.19 129.225 198.204 130.513 199.263 131.86L199.655 131.553L200.048 131.246C198.981 129.89 197.932 128.556 196.052 126.764L195.708 127.125Z" fill="black"/>
<path d="M199.891 132.135C199.906 132.411 200.142 132.625 200.418 132.612C200.693 132.6 200.905 132.366 200.89 132.09L200.391 132.113L199.891 132.135ZM200.75 103.885L201.25 103.903L200.75 103.885ZM204.264 66.869L204.764 66.8727L204.764 66.8618L204.763 66.8509L204.264 66.869ZM201.786 30.1359L201.294 30.2257L201.296 30.2333L201.298 30.2409L201.786 30.1359ZM200.64 22.8715C200.565 22.6052 200.289 22.4483 200.023 22.5211C199.757 22.5938 199.602 22.8686 199.677 23.1349L200.159 23.0032L200.64 22.8715ZM200.391 132.113L200.89 132.09C200.89 132.091 200.889 132.056 200.888 131.964C200.887 131.88 200.885 131.758 200.884 131.599C200.88 131.282 200.877 130.817 200.874 130.206C200.869 128.985 200.869 127.182 200.883 124.812C200.913 120.072 201.006 113.063 201.25 103.903L200.75 103.885L200.25 103.868C199.761 122.193 199.88 131.933 199.891 132.135L200.391 132.113ZM200.75 103.885L201.25 103.903C201.467 95.8064 202.343 89.1706 203.168 83.2489C203.991 77.3355 204.768 72.1057 204.764 66.8727L204.264 66.869L203.763 66.8652C203.767 72.0136 203.004 77.1665 202.177 83.1031C201.352 89.0314 200.468 95.713 200.25 103.868L200.75 103.885ZM204.264 66.869L204.763 66.8509C204.317 56.7994 203.845 48.2719 203.41 41.9257C202.977 35.6029 202.579 31.3973 202.274 30.0308L201.786 30.1359L201.298 30.2409C201.582 31.5145 201.977 35.6266 202.412 41.9858C202.846 48.3217 203.318 56.8408 203.764 66.887L204.264 66.869ZM201.786 30.1359L202.277 30.046C201.996 28.5725 201.743 26.7865 200.64 22.8715L200.159 23.0032L199.677 23.1349C200.766 27.0001 201.011 28.7403 201.294 30.2257L201.786 30.1359Z" fill="black"/>
<path d="M22.6465 34.9832C22.5007 35.2165 22.5728 35.5253 22.8075 35.6728C23.0422 35.8203 23.3506 35.7508 23.4963 35.5175L23.0714 35.2504L22.6465 34.9832ZM47.3187 19.4215L47.5491 19.867L47.3187 19.4215ZM89.7949 15.9561L90.0085 15.5059L89.9416 15.4738L89.8685 15.4623L89.7949 15.9561ZM114.092 31.6945L114.53 31.4559L114.508 31.4163L114.48 31.3812L114.092 31.6945ZM115.073 35.2223C115.17 35.4815 115.458 35.6146 115.717 35.5196C115.976 35.4247 116.106 35.1376 116.009 34.8784L115.541 35.0504L115.073 35.2223ZM23.0714 35.2504L23.4963 35.5175C23.5507 35.4304 23.7203 35.2323 24.051 34.9146C24.3695 34.6086 24.8081 34.2191 25.3667 33.7554C26.4832 32.8286 28.0666 31.6157 30.1008 30.1966C34.1688 27.3589 40.0301 23.7032 47.5491 19.867L47.3187 19.4215L47.0883 18.976C39.529 22.8327 33.6287 26.5118 29.5236 29.3755C27.4714 30.8071 25.8654 32.0367 24.7237 32.9844C24.1531 33.458 23.6954 33.8638 23.3545 34.1913C23.0259 34.5071 22.7731 34.7805 22.6465 34.9832L23.0714 35.2504ZM47.3187 19.4215L47.5491 19.867C60.7653 13.1242 78.4918 14.6897 89.7214 16.4498L89.7949 15.9561L89.8685 15.4623C78.6395 13.7023 60.6176 12.0735 47.0883 18.976L47.3187 19.4215ZM89.7949 15.9561L89.5813 16.4063C105.779 24.1818 110.501 28.0672 113.705 32.0077L114.092 31.6945L114.48 31.3812C111.127 27.2589 106.233 23.2946 90.0085 15.5059L89.7949 15.9561ZM114.092 31.6945L113.655 31.933C114.228 32.9727 114.637 34.0605 115.073 35.2223L115.541 35.0504L116.009 34.8784C115.578 33.7275 115.145 32.5705 114.53 31.4559L114.092 31.6945Z" fill="black"/>
<path d="M115.152 34.7334C114.978 34.9469 115.012 35.2618 115.227 35.4368C115.442 35.6118 115.757 35.5806 115.93 35.3671L115.541 35.0503L115.152 34.7334ZM131.919 23.3571L131.688 22.9123L131.919 23.3571ZM177.826 19.1046L177.962 18.6249L177.91 18.6098L177.856 18.606L177.826 19.1046ZM194.351 25.5869L194.134 26.0352L194.141 26.0387L194.148 26.0419L194.351 25.5869ZM199.758 28.2155C200.018 28.31 200.304 28.1764 200.397 27.9171C200.489 27.6577 200.353 27.3708 200.093 27.2763L199.925 27.7459L199.758 28.2155ZM115.541 35.0503L115.93 35.3671C117.233 33.7631 122.579 28.7223 132.151 23.8019L131.919 23.3571L131.688 22.9123C122.026 27.8786 116.561 32.9982 115.152 34.7334L115.541 35.0503ZM131.919 23.3571L132.151 23.8019C137.249 21.1814 145.593 19.9092 154.247 19.409C162.877 18.9101 171.732 19.1825 177.795 19.6032L177.826 19.1046L177.856 18.606C171.763 18.1832 162.864 17.9091 154.181 18.4111C145.52 18.9117 136.989 20.1875 131.688 22.9123L131.919 23.3571ZM177.826 19.1046L177.689 19.5843C185.478 21.8574 190.443 24.2256 194.134 26.0352L194.351 25.5869L194.569 25.1385C190.854 23.3173 185.83 20.9212 177.962 18.6249L177.826 19.1046ZM194.351 25.5869L194.148 26.0419C195.892 26.831 197.317 27.3292 199.758 28.2155L199.925 27.7459L200.093 27.2763C197.637 26.3847 196.255 25.9013 194.555 25.1319L194.351 25.5869Z" fill="black"/>
<path d="M118.252 33.8467C118.247 33.5707 118.02 33.3485 117.744 33.3506C117.468 33.3526 117.247 33.578 117.251 33.8541L117.752 33.8504L118.252 33.8467ZM110.322 71.0649L109.84 70.9275L109.831 70.9597L109.827 70.9929L110.322 71.0649ZM105.945 126.168L106.445 126.197L106.445 126.189L105.945 126.168ZM103.796 137.94C103.734 138.209 103.902 138.478 104.172 138.542C104.441 138.606 104.709 138.44 104.771 138.171L104.283 138.056L103.796 137.94ZM117.752 33.8504L117.251 33.8541C117.305 37.2659 116.134 48.2811 109.84 70.9275L110.322 71.0649L110.804 71.2023C117.103 48.5381 118.307 37.4085 118.252 33.8467L117.752 33.8504ZM110.322 71.0649L109.827 70.9929C107.193 90.1701 105.926 111.893 105.445 126.147L105.945 126.168L106.445 126.189C106.925 111.952 108.19 90.2665 110.818 71.1368L110.322 71.0649ZM105.945 126.168L105.445 126.14C105.184 131.514 104.885 133.195 103.796 137.94L104.283 138.056L104.771 138.171C105.871 133.378 106.18 131.638 106.445 126.197L105.945 126.168Z" fill="black"/>
<path d="M15.6245 137.247C15.3486 137.26 15.137 137.493 15.1518 137.769C15.1666 138.045 15.4022 138.258 15.6781 138.246L15.6513 137.746L15.6245 137.247ZM112.37 135.714C112.639 135.778 112.907 135.611 112.968 135.343C113.03 135.074 112.861 134.805 112.592 134.742L112.481 135.228L112.37 135.714ZM15.6513 137.746L15.6781 138.246C15.817 138.239 15.9558 138.233 30.3487 137.597L30.3225 137.098L30.2963 136.598C15.9041 137.234 15.7642 137.241 15.6245 137.247L15.6513 137.746ZM30.3225 137.098L30.3487 137.597C44.742 136.961 73.3813 135.696 89.3851 135.107L89.3626 134.607L89.34 134.108C73.3317 134.697 44.688 135.963 30.2963 136.598L30.3225 137.098ZM89.3626 134.607L89.3851 135.107C105.404 134.517 107.838 134.648 112.37 135.714L112.481 135.228L112.592 134.742C107.905 133.639 105.333 133.519 89.34 134.108L89.3626 134.607Z" fill="black"/>
<path d="M109.73 136.058C109.454 136.07 109.242 136.304 109.257 136.58C109.272 136.856 109.507 137.069 109.783 137.057L109.756 136.557L109.73 136.058ZM217.006 133.733C217.283 133.727 217.5 133.5 217.493 133.224C217.486 132.948 217.256 132.728 216.98 132.733L216.993 133.233L217.006 133.733ZM109.756 136.557L109.783 137.057C109.94 137.049 110.096 137.042 127.493 136.386L127.47 135.886L127.447 135.387C110.055 136.043 109.892 136.051 109.73 136.058L109.756 136.557ZM127.47 135.886L127.493 136.386C144.888 135.73 179.509 134.424 217.006 133.733L216.993 133.233L216.98 132.733C179.471 133.425 144.842 134.731 127.447 135.387L127.47 135.886Z" fill="black"/>
<path d="M214.763 133.299C214.778 133.575 215.014 133.788 215.29 133.775C215.565 133.763 215.777 133.529 215.762 133.253L215.263 133.276L214.763 133.299ZM213.63 74.885L214.129 74.9148L214.13 74.9032L214.13 74.8915L213.63 74.885ZM212.039 33.4198L212.537 33.3758L212.535 33.3519L212.53 33.3283L212.039 33.4198ZM206.823 27.9499C206.55 27.9013 206.292 28.0822 206.246 28.354C206.199 28.6257 206.382 28.8853 206.655 28.9339L206.739 28.4419L206.823 27.9499ZM215.263 133.276L215.762 133.253C215.07 120.37 213.596 85.2797 214.129 74.9148L213.63 74.885L213.13 74.8553C212.593 85.2848 214.073 120.437 214.763 133.299L215.263 133.276ZM213.63 74.885L214.13 74.8915C214.183 63.906 213.517 43.5346 212.537 33.3758L212.039 33.4198L211.541 33.4637C212.517 43.5777 213.182 63.9132 213.129 74.8785L213.63 74.885ZM212.039 33.4198L212.53 33.3283C212.168 31.4646 211.674 30.2316 210.735 29.4078C209.811 28.596 208.532 28.2546 206.823 27.9499L206.739 28.4419L206.655 28.9339C208.374 29.2404 209.389 29.5507 210.079 30.1563C210.755 30.7499 211.196 31.7002 211.548 33.5112L212.039 33.4198Z" fill="black"/>
<path d="M207.731 132.329C207.746 132.605 207.981 132.818 208.257 132.806C208.533 132.793 208.745 132.559 208.73 132.284L208.23 132.306L207.731 132.329ZM207.567 107.119L207.067 107.128V107.128L207.567 107.119ZM207.205 85.5589L206.707 85.5112L206.705 85.5355L206.705 85.5598L207.205 85.5589ZM208.922 59.9967L209.422 60.0154L209.422 60.0047L209.422 59.994L208.922 59.9967ZM208.105 35.8719C208.082 35.5966 207.84 35.39 207.565 35.4105C207.29 35.4309 207.085 35.6706 207.108 35.9459L207.606 35.9089L208.105 35.8719ZM208.23 132.306L208.73 132.284C208.73 132.287 208.726 132.14 208.717 131.828C208.709 131.524 208.696 131.075 208.68 130.49C208.648 129.319 208.601 127.603 208.543 125.411C208.425 121.028 208.26 114.742 208.067 107.11L207.567 107.119L207.067 107.128C207.453 122.384 207.728 132.277 207.731 132.329L208.23 132.306ZM207.567 107.119L208.067 107.11C207.914 101.056 207.804 95.4257 207.705 85.558L207.205 85.5589L206.705 85.5598C206.804 95.4321 206.914 101.068 207.067 107.128L207.567 107.119ZM207.205 85.5589L207.703 85.6066C209.057 70.16 209.226 66.7193 209.422 60.0154L208.922 59.9967L208.422 59.9781C208.227 66.6548 208.06 70.0742 206.707 85.5112L207.205 85.5589ZM208.922 59.9967L209.422 59.994C209.351 54.7878 208.935 45.9359 208.105 35.8719L207.606 35.9089L207.108 35.9459C207.936 45.9935 208.351 54.8218 208.422 59.9994L208.922 59.9967Z" fill="black"/>
</g>
</svg>
