<svg width="87" height="84" viewBox="0 0 87 84" fill="none" xmlns="http://www.w3.org/2000/svg">
<path d="M43.5 0.5C67.2649 0.5 86.5 19.0966 86.5 42C86.5 64.9034 67.2649 83.5 43.5 83.5C19.7351 83.5 0.5 64.9034 0.5 42C0.5 19.0966 19.7351 0.5 43.5 0.5Z" stroke="#8A8078"/>
<path opacity="0.5" d="M25.537 65.0849C25.75 64.5391 27.1188 62.4628 28.554 60.8119C30.1002 59.0334 32.2733 57.9993 37.0383 57.2026C48.9342 55.2135 50.8741 57.2156 54.8835 58.1822C59.7399 59.3529 61.5336 60.7264 63.3181 62.039C64.7299 63.5397 65.3907 64.6395 65.6335 65.4823C65.7299 65.9063 65.7717 66.323 65.8148 66.8664" stroke="#1E1E1E" stroke-width="2" stroke-linecap="round"/>
<path opacity="0.5" d="M18.8032 28.5936C21.5765 28.5738 27.6768 28.3113 30.4745 27.205C31.7966 26.6821 32.6598 25.8484 33.36 25.1934C33.9718 24.5177 34.3683 23.424 34.5306 21.8444C34.5858 21.0075 34.5858 20.0989 34.5858 19.1628" stroke="#1E1E1E" stroke-width="2" stroke-linecap="round"/>
<path opacity="0.5" d="M51.5387 19.6333C51.5387 20.4018 51.794 22.7469 52.904 24.6819C53.4744 25.2722 54.4049 26.0423 57.2214 26.9068C60.038 27.7713 64.7123 28.7069 70.7008 29.8526" stroke="#1E1E1E" stroke-width="2" stroke-linecap="round"/>
<path opacity="0.5" d="M29.296 34.4214C29.296 34.482 29.2982 35.1927 29.4589 36.3651C29.5293 36.8782 29.9325 37.1441 30.3185 37.359C30.7045 37.5739 31.1519 37.7091 31.5722 37.6877C31.9926 37.6664 32.3724 37.4844 32.6094 37.1759C33.0992 36.5382 33.014 35.3991 32.843 34.3528C32.672 33.9029 32.3301 33.6176 31.8976 33.4707C31.4651 33.3237 30.9523 33.3237 29.8791 33.9079" stroke="#1E1E1E" stroke-width="2" stroke-linecap="round"/>
<path opacity="0.5" d="M54.4538 33.7805C54.3938 33.7805 53.9666 33.849 53.2377 34.1344C52.4673 34.4361 52.3246 35.5109 52.308 36.3473C52.2997 36.7638 52.4936 37.1559 52.7854 37.3955C53.3974 37.898 54.3857 37.7164 55.1346 37.4434C55.6718 36.8957 55.9741 36.1414 55.9953 35.3527C55.9331 34.9659 55.7228 34.6067 54.667 34.1318" stroke="#1E1E1E" stroke-width="2" stroke-linecap="round"/>
</svg>
